<svg width="24" height="24" viewBox="0 0 24 24" fill="none" xmlns="http://www.w3.org/2000/svg">
<g opacity="0.3" clip-path="url(#clip0)">
<path d="M13.3045 1.55223C13.1176 1.63021 12.9956 1.81216 12.9956 2.01408V7.49123H0.499849C0.223941 7.49123 0 7.71518 0 7.99108L0 15.9884C0 16.2643 0.223941 16.4883 0.499849 16.4883H12.9957V21.9864C12.9957 22.1883 13.1177 22.3703 13.3036 22.4483C13.4905 22.5253 13.7055 22.4833 13.8484 22.3403L23.8531 12.3686C23.947 12.2747 24 12.1477 24 12.0148C24 11.8818 23.947 11.7548 23.8541 11.6609L13.8494 1.6602C13.7064 1.51723 13.4915 1.47426 13.3045 1.55223Z" fill="#393C4E"/>
</g>
<defs>
<clipPath id="clip0">
<rect width="24" height="24" fill="white" transform="translate(0 24) rotate(-90)"/>
</clipPath>
</defs>
</svg>
