<svg width="1544" height="937" viewBox="0 0 1544 937" fill="none" xmlns="http://www.w3.org/2000/svg">
<path d="M352.66 575.186C405.512 477.724 511.214 400.153 620.894 415.496C704.148 427.146 773.764 488.238 856.735 501.592C949.082 516.652 1040.58 469.768 1115.02 413.507C1189.75 356.962 1256.81 288.768 1341.49 248.703C1378.43 231.086 1417.92 219.436 1454.01 200.682C1490.09 181.645 1524.19 153.798 1538.12 115.439C1552.32 77.0791 1540.67 27.6378 1504.59 8.31592C1471.63 -9.3011 1429.29 3.2013 1399.74 25.9329C1369.9 48.6646 1348.31 80.2048 1322.17 107.199C1263.35 168.006 1183.79 203.524 1106.21 237.337C1056.2 259.216 1001.36 281.664 948.514 268.025C898.788 255.238 862.417 213.469 817.523 187.896C762.967 156.924 694.772 151.809 636.238 174.257C594.468 190.169 545.879 219.152 509.509 193.01C501.269 187.043 494.165 178.235 484.22 176.246C467.739 172.836 453.248 189.317 450.691 205.797C448.418 222.277 454.1 238.758 456.942 255.238C469.728 328.264 424.265 400.437 367.152 447.889C310.039 495.341 240.991 526.313 181.605 570.64C104.317 628.606 44.6467 709.303 11.97 799.945C-0.248275 834.327 -7.9202 875.528 13.3907 905.079C36.6906 937.472 82.1539 940.029 117.956 933.21C138.415 929.232 158.589 922.696 178.763 916.729C193.539 912.183 208.315 907.636 222.522 901.385C245.822 891.156 264.291 875.528 274.805 851.944C291.285 815.573 291.285 772.951 298.957 734.308C308.334 685.151 322.257 636.562 344.42 591.667C346.978 586.268 349.819 580.585 352.66 575.186Z" fill="#181B2C"/>
</svg>
