<svg width="715" height="180" viewBox="0 0 715 180" fill="none" xmlns="http://www.w3.org/2000/svg">
<path fill-rule="evenodd" clip-rule="evenodd" d="M226.945 10.2716C226.199 6.84776 225.453 3.42388 225.076 0H438.689C451.773 9.86405 464.844 19.4831 480.493 23.5071C507.607 30.5044 535.742 18.988 561.399 7.76308C567.263 5.20727 573.148 2.63248 579.018 0H714.921C712.731 0.868876 710.536 1.72855 708.34 2.58858L708.339 2.58896L708.338 2.5892C699.513 6.04491 690.674 9.50645 682.103 13.5942C651.541 28.0547 625.452 49.6582 599.319 71.2983C588.306 80.418 577.285 89.5443 565.918 98.1451C527.725 127.009 480.784 151.062 433.406 143.336C412.479 139.968 393.207 130.679 373.946 121.396C354.03 111.797 334.125 102.204 312.411 99.1656C256.141 91.2936 201.912 131.091 174.797 181.093C173.339 183.862 171.882 186.778 170.57 189.548C159.199 212.581 152.056 237.508 147.245 262.728C145.98 269.099 145.122 275.682 144.259 282.301C143.644 287.013 143.027 291.744 142.259 296.431H0C0.00332055 296.421 0.00664176 296.412 0.00996363 296.403C16.7744 249.9 47.3877 208.499 87.0392 178.76C100.675 168.582 115.303 159.777 129.931 150.972L129.931 150.972L129.931 150.972C147.988 140.103 166.044 129.234 182.232 115.784C211.533 91.4394 234.858 54.4119 228.298 16.9471C227.914 14.7221 227.429 12.4971 226.945 10.272L226.945 10.2716Z" fill="#181B2C"/>
</svg>
