<svg width="224" height="288" viewBox="0 0 224 288" fill="none" xmlns="http://www.w3.org/2000/svg">
<path fill-rule="evenodd" clip-rule="evenodd" d="M98.1369 21.935C104.793 9.78061 118.684 2.69059 132.43 0.809563C144.15 -0.926773 156.449 0.375465 168.169 2.40119C173.957 3.55875 178.587 5.72916 182.928 9.9253C189.584 16.4366 195.516 23.9607 200.581 31.7742C211.577 48.5588 219.102 67.5137 222.14 87.3369C226.915 118.591 220.838 151.292 205.066 178.639C184.524 214.197 150.29 237.992 115.964 261.851C104.093 270.103 92.2111 278.362 80.8804 287.118H0C0.0706753 287.049 0.141351 286.981 0.212027 286.913C16.1094 271.573 32.025 256.216 45.6128 238.977C82.944 191.228 100.886 129.009 94.9536 68.816C94.7892 67.1715 94.6108 65.5146 94.4317 63.8502C92.8768 49.4054 91.2605 34.3904 98.1369 21.935Z" fill="#181B2C"/>
</svg>
