<svg width="794" height="482" viewBox="0 0 794 482" fill="none" xmlns="http://www.w3.org/2000/svg">
<path d="M181.28 295.666C208.448 245.568 262.782 205.693 319.162 213.58C361.958 219.569 397.743 250.972 440.392 257.837C487.862 265.578 534.894 241.478 573.162 212.558C611.576 183.492 646.046 148.437 689.573 127.842C708.561 118.787 728.863 112.798 747.413 103.158C765.963 93.3719 783.49 79.0579 790.647 59.3397C797.95 39.6215 791.961 14.2068 773.412 4.27468C756.469 -4.7811 734.706 1.64558 719.515 13.3305C704.179 25.0154 693.078 41.2281 679.641 55.1039C649.406 86.361 608.509 104.619 568.634 122C542.927 133.247 514.738 144.785 487.57 137.775C462.01 131.202 443.314 109.731 420.236 96.5853C392.192 80.6646 357.138 78.0355 327.049 89.5744C305.578 97.7538 280.602 112.652 261.906 99.2143C257.67 96.1471 254.019 91.6192 248.906 90.5968C240.435 88.844 232.986 97.3156 231.671 105.787C230.503 114.259 233.424 122.73 234.885 131.202C241.457 168.739 218.088 205.839 188.729 230.231C159.371 254.623 123.878 270.544 93.3515 293.329C53.6228 323.126 22.95 364.607 6.153 411.201C-0.127622 428.874 -4.07127 450.053 6.88331 465.243C18.8603 481.894 42.2301 483.209 60.6338 479.703C71.1502 477.659 81.5205 474.299 91.8908 471.232C99.486 468.895 107.081 466.558 114.384 463.345C126.361 458.086 135.855 450.053 141.259 437.93C149.731 419.234 149.731 397.325 153.675 377.461C158.495 352.192 165.652 327.216 177.044 304.138C178.359 301.363 179.82 298.442 181.28 295.666Z" fill="#181B2C"/>
</svg>
