<svg width="588" height="887" viewBox="0 0 588 887" fill="none" xmlns="http://www.w3.org/2000/svg">
<path d="M408.346 1.58979C381.352 5.28368 354.074 19.2068 341.003 43.075C325.944 70.353 331.627 103.882 334.752 135.138C346.402 253.343 311.168 375.525 237.859 469.293C173.358 551.127 82.1469 611.366 29.2958 701.724C2.58611 747.472 -12.4735 806.29 13.3837 852.321C25.602 874.201 50.8908 891.818 74.7591 884.998C89.2505 881.02 100.332 868.802 109.141 856.868C151.763 798.902 168.527 725.593 208.023 665.354C293.835 534.647 472.847 486.058 550.987 350.805C581.959 297.101 593.893 232.884 584.516 171.509C578.549 132.581 563.773 95.3578 542.178 62.3969C532.233 47.0531 520.583 32.2775 507.513 19.4909C498.988 11.2507 489.896 6.98853 478.53 4.71536C455.514 0.737324 431.362 -1.81996 408.346 1.58979Z" fill="#181B2C"/>
</svg>
