<svg width="1434" height="800" viewBox="0 0 1434 800" fill="none" xmlns="http://www.w3.org/2000/svg">
<path fill-rule="evenodd" clip-rule="evenodd" d="M340.71 575.186C393.561 477.724 499.263 400.153 608.943 415.496C651.266 421.419 690.065 440.118 728.885 458.828C766.428 476.922 803.992 495.027 844.784 501.592C937.131 516.652 1028.63 469.768 1103.07 413.507C1125.23 396.743 1146.71 378.956 1168.17 361.18L1168.18 361.178C1219.11 318.998 1269.97 276.889 1329.54 248.703C1346.24 240.735 1363.47 233.988 1380.67 227.252C1401.5 219.095 1422.29 210.954 1442.06 200.682C1478.14 181.645 1512.24 153.798 1526.17 115.439C1540.37 77.0791 1528.72 27.6378 1492.64 8.31592C1459.68 -9.3011 1417.34 3.2013 1387.79 25.9329C1368.35 40.7448 1352.4 59.2966 1336.42 77.8937L1336.42 77.8972C1327.88 87.8396 1319.32 97.795 1310.21 107.199C1272.39 146.303 1225.99 174.949 1177.05 199.408V223H1126.83C1115.98 227.855 1105.1 232.613 1094.26 237.337C1044.25 259.216 989.414 281.664 936.563 268.025C906.481 260.29 881.286 241.947 856.135 223H438.802C439.563 229.409 440.959 235.818 442.355 242.228C443.299 246.565 444.244 250.901 444.991 255.238C457.778 328.264 412.315 400.437 355.201 447.889C323.649 474.104 288.454 495.29 253.258 516.476L253.257 516.476C224.745 533.639 196.232 550.802 169.654 570.64C92.3667 628.606 32.6961 709.303 0.0194069 799.945C0.0129366 799.964 0.00646767 799.982 0 800H277.288C278.785 790.865 279.987 781.644 281.185 772.458C282.868 759.557 284.541 746.727 287.006 734.308C296.383 685.151 310.306 636.562 332.47 591.667C335.027 586.268 337.868 580.585 340.71 575.186Z" fill="#181B2C"/>
</svg>
