<svg width="236" height="38" viewBox="0 0 236 38" fill="none" xmlns="http://www.w3.org/2000/svg">
<path d="M0.900009 1.8C1.39707 1.8 1.8 1.39706 1.8 0.9C1.8 0.402943 1.39707 0 0.900009 0C0.402953 0 0 0.402943 0 0.9C0 1.39706 0.402953 1.8 0.900009 1.8Z" fill="white"/>
<path d="M6.90001 1.8C7.39707 1.8 7.8 1.39706 7.8 0.9C7.8 0.402943 7.39707 0 6.90001 0C6.40295 0 6 0.402943 6 0.9C6 1.39706 6.40295 1.8 6.90001 1.8Z" fill="white"/>
<path d="M12.9 1.8C13.3971 1.8 13.8 1.39706 13.8 0.9C13.8 0.402943 13.3971 0 12.9 0C12.403 0 12 0.402943 12 0.9C12 1.39706 12.403 1.8 12.9 1.8Z" fill="white"/>
<path d="M18.9 1.8C19.3971 1.8 19.8 1.39706 19.8 0.9C19.8 0.402943 19.3971 0 18.9 0C18.403 0 18 0.402943 18 0.9C18 1.39706 18.403 1.8 18.9 1.8Z" fill="white"/>
<path d="M24.9 1.8C25.3971 1.8 25.8 1.39706 25.8 0.9C25.8 0.402943 25.3971 0 24.9 0C24.403 0 24 0.402943 24 0.9C24 1.39706 24.403 1.8 24.9 1.8Z" fill="white"/>
<path d="M30.9 1.8C31.3971 1.8 31.8 1.39706 31.8 0.9C31.8 0.402943 31.3971 0 30.9 0C30.403 0 30 0.402943 30 0.9C30 1.39706 30.403 1.8 30.9 1.8Z" fill="white"/>
<path d="M36.9 1.8C37.3971 1.8 37.8 1.39706 37.8 0.9C37.8 0.402943 37.3971 0 36.9 0C36.403 0 36 0.402943 36 0.9C36 1.39706 36.403 1.8 36.9 1.8Z" fill="white"/>
<path d="M42.9 1.8C43.3971 1.8 43.8 1.39706 43.8 0.9C43.8 0.402943 43.3971 0 42.9 0C42.403 0 42 0.402943 42 0.9C42 1.39706 42.403 1.8 42.9 1.8Z" fill="white"/>
<path d="M48.9 1.8C49.3971 1.8 49.8 1.39706 49.8 0.9C49.8 0.402943 49.3971 0 48.9 0C48.403 0 48 0.402943 48 0.9C48 1.39706 48.403 1.8 48.9 1.8Z" fill="white"/>
<path d="M54.9 1.8C55.3971 1.8 55.8 1.39706 55.8 0.9C55.8 0.402943 55.3971 0 54.9 0C54.403 0 54 0.402943 54 0.9C54 1.39706 54.403 1.8 54.9 1.8Z" fill="white"/>
<path d="M60.9 1.8C61.3971 1.8 61.8 1.39706 61.8 0.9C61.8 0.402943 61.3971 0 60.9 0C60.403 0 60 0.402943 60 0.9C60 1.39706 60.403 1.8 60.9 1.8Z" fill="white"/>
<path d="M66.9 1.8C67.3971 1.8 67.8 1.39706 67.8 0.9C67.8 0.402943 67.3971 0 66.9 0C66.403 0 66 0.402943 66 0.9C66 1.39706 66.403 1.8 66.9 1.8Z" fill="white"/>
<path d="M72.9 1.8C73.3971 1.8 73.8 1.39706 73.8 0.9C73.8 0.402943 73.3971 0 72.9 0C72.403 0 72 0.402943 72 0.9C72 1.39706 72.403 1.8 72.9 1.8Z" fill="white"/>
<path d="M78.9 1.8C79.3971 1.8 79.8 1.39706 79.8 0.9C79.8 0.402943 79.3971 0 78.9 0C78.403 0 78 0.402943 78 0.9C78 1.39706 78.403 1.8 78.9 1.8Z" fill="white"/>
<path d="M84.9 1.8C85.3971 1.8 85.8 1.39706 85.8 0.9C85.8 0.402943 85.3971 0 84.9 0C84.403 0 84 0.402943 84 0.9C84 1.39706 84.403 1.8 84.9 1.8Z" fill="white"/>
<path d="M90.9 1.8C91.3971 1.8 91.8 1.39706 91.8 0.9C91.8 0.402943 91.3971 0 90.9 0C90.403 0 90 0.402943 90 0.9C90 1.39706 90.403 1.8 90.9 1.8Z" fill="white"/>
<path d="M96.9 1.8C97.3971 1.8 97.8 1.39706 97.8 0.9C97.8 0.402943 97.3971 0 96.9 0C96.403 0 96 0.402943 96 0.9C96 1.39706 96.403 1.8 96.9 1.8Z" fill="white"/>
<path d="M102.9 1.8C103.397 1.8 103.8 1.39706 103.8 0.9C103.8 0.402943 103.397 0 102.9 0C102.403 0 102 0.402943 102 0.9C102 1.39706 102.403 1.8 102.9 1.8Z" fill="white"/>
<path d="M108.9 1.8C109.397 1.8 109.8 1.39706 109.8 0.9C109.8 0.402943 109.397 0 108.9 0C108.403 0 108 0.402943 108 0.9C108 1.39706 108.403 1.8 108.9 1.8Z" fill="white"/>
<path d="M114.9 1.8C115.397 1.8 115.8 1.39706 115.8 0.9C115.8 0.402943 115.397 0 114.9 0C114.403 0 114 0.402943 114 0.9C114 1.39706 114.403 1.8 114.9 1.8Z" fill="white"/>
<path d="M120.9 1.8C121.397 1.8 121.8 1.39706 121.8 0.9C121.8 0.402943 121.397 0 120.9 0C120.403 0 120 0.402943 120 0.9C120 1.39706 120.403 1.8 120.9 1.8Z" fill="white"/>
<path d="M126.9 1.8C127.397 1.8 127.8 1.39706 127.8 0.9C127.8 0.402943 127.397 0 126.9 0C126.403 0 126 0.402943 126 0.9C126 1.39706 126.403 1.8 126.9 1.8Z" fill="white"/>
<path d="M132.9 1.8C133.397 1.8 133.8 1.39706 133.8 0.9C133.8 0.402943 133.397 0 132.9 0C132.403 0 132 0.402943 132 0.9C132 1.39706 132.403 1.8 132.9 1.8Z" fill="white"/>
<path d="M138.9 1.8C139.397 1.8 139.8 1.39706 139.8 0.9C139.8 0.402943 139.397 0 138.9 0C138.403 0 138 0.402943 138 0.9C138 1.39706 138.403 1.8 138.9 1.8Z" fill="white"/>
<path d="M144.9 1.8C145.397 1.8 145.8 1.39706 145.8 0.9C145.8 0.402943 145.397 0 144.9 0C144.403 0 144 0.402943 144 0.9C144 1.39706 144.403 1.8 144.9 1.8Z" fill="white"/>
<path d="M150.9 1.8C151.397 1.8 151.8 1.39706 151.8 0.9C151.8 0.402943 151.397 0 150.9 0C150.403 0 150 0.402943 150 0.9C150 1.39706 150.403 1.8 150.9 1.8Z" fill="white"/>
<path d="M156.9 1.8C157.397 1.8 157.8 1.39706 157.8 0.9C157.8 0.402943 157.397 0 156.9 0C156.403 0 156 0.402943 156 0.9C156 1.39706 156.403 1.8 156.9 1.8Z" fill="white"/>
<path d="M162.9 1.8C163.397 1.8 163.8 1.39706 163.8 0.9C163.8 0.402943 163.397 0 162.9 0C162.403 0 162 0.402943 162 0.9C162 1.39706 162.403 1.8 162.9 1.8Z" fill="white"/>
<path d="M168.9 1.8C169.397 1.8 169.8 1.39706 169.8 0.9C169.8 0.402943 169.397 0 168.9 0C168.403 0 168 0.402943 168 0.9C168 1.39706 168.403 1.8 168.9 1.8Z" fill="white"/>
<path d="M174.9 1.8C175.397 1.8 175.8 1.39706 175.8 0.9C175.8 0.402943 175.397 0 174.9 0C174.403 0 174 0.402943 174 0.9C174 1.39706 174.403 1.8 174.9 1.8Z" fill="white"/>
<path d="M180.9 1.8C181.397 1.8 181.8 1.39706 181.8 0.9C181.8 0.402943 181.397 0 180.9 0C180.403 0 180 0.402943 180 0.9C180 1.39706 180.403 1.8 180.9 1.8Z" fill="white"/>
<path d="M186.9 1.8C187.397 1.8 187.8 1.39706 187.8 0.9C187.8 0.402943 187.397 0 186.9 0C186.403 0 186 0.402943 186 0.9C186 1.39706 186.403 1.8 186.9 1.8Z" fill="white"/>
<path d="M192.9 1.8C193.397 1.8 193.8 1.39706 193.8 0.9C193.8 0.402943 193.397 0 192.9 0C192.403 0 192 0.402943 192 0.9C192 1.39706 192.403 1.8 192.9 1.8Z" fill="white"/>
<path d="M198.9 1.8C199.397 1.8 199.8 1.39706 199.8 0.9C199.8 0.402943 199.397 0 198.9 0C198.403 0 198 0.402943 198 0.9C198 1.39706 198.403 1.8 198.9 1.8Z" fill="white"/>
<path d="M204.9 1.8C205.397 1.8 205.8 1.39706 205.8 0.9C205.8 0.402943 205.397 0 204.9 0C204.403 0 204 0.402943 204 0.9C204 1.39706 204.403 1.8 204.9 1.8Z" fill="white"/>
<path d="M210.9 1.8C211.397 1.8 211.8 1.39706 211.8 0.9C211.8 0.402943 211.397 0 210.9 0C210.403 0 210 0.402943 210 0.9C210 1.39706 210.403 1.8 210.9 1.8Z" fill="white"/>
<path d="M216.9 1.8C217.397 1.8 217.8 1.39706 217.8 0.9C217.8 0.402943 217.397 0 216.9 0C216.403 0 216 0.402943 216 0.9C216 1.39706 216.403 1.8 216.9 1.8Z" fill="white"/>
<path d="M222.9 1.8C223.397 1.8 223.8 1.39706 223.8 0.9C223.8 0.402943 223.397 0 222.9 0C222.403 0 222 0.402943 222 0.9C222 1.39706 222.403 1.8 222.9 1.8Z" fill="white"/>
<path d="M228.9 1.8C229.397 1.8 229.8 1.39706 229.8 0.9C229.8 0.402943 229.397 0 228.9 0C228.403 0 228 0.402943 228 0.9C228 1.39706 228.403 1.8 228.9 1.8Z" fill="white"/>
<path d="M234.9 1.8C235.397 1.8 235.8 1.39706 235.8 0.9C235.8 0.402943 235.397 0 234.9 0C234.403 0 234 0.402943 234 0.9C234 1.39706 234.403 1.8 234.9 1.8Z" fill="white"/>
<path d="M0.900009 7.8C1.39707 7.8 1.8 7.39706 1.8 6.9C1.8 6.40294 1.39707 6 0.900009 6C0.402953 6 0 6.40294 0 6.9C0 7.39706 0.402953 7.8 0.900009 7.8Z" fill="white"/>
<path d="M6.90001 7.8C7.39707 7.8 7.8 7.39706 7.8 6.9C7.8 6.40294 7.39707 6 6.90001 6C6.40295 6 6 6.40294 6 6.9C6 7.39706 6.40295 7.8 6.90001 7.8Z" fill="white"/>
<path d="M12.9 7.8C13.3971 7.8 13.8 7.39706 13.8 6.9C13.8 6.40294 13.3971 6 12.9 6C12.403 6 12 6.40294 12 6.9C12 7.39706 12.403 7.8 12.9 7.8Z" fill="white"/>
<path d="M18.9 7.8C19.3971 7.8 19.8 7.39706 19.8 6.9C19.8 6.40294 19.3971 6 18.9 6C18.403 6 18 6.40294 18 6.9C18 7.39706 18.403 7.8 18.9 7.8Z" fill="white"/>
<path d="M24.9 7.8C25.3971 7.8 25.8 7.39706 25.8 6.9C25.8 6.40294 25.3971 6 24.9 6C24.403 6 24 6.40294 24 6.9C24 7.39706 24.403 7.8 24.9 7.8Z" fill="white"/>
<path d="M30.9 7.8C31.3971 7.8 31.8 7.39706 31.8 6.9C31.8 6.40294 31.3971 6 30.9 6C30.403 6 30 6.40294 30 6.9C30 7.39706 30.403 7.8 30.9 7.8Z" fill="white"/>
<path d="M36.9 7.8C37.3971 7.8 37.8 7.39706 37.8 6.9C37.8 6.40294 37.3971 6 36.9 6C36.403 6 36 6.40294 36 6.9C36 7.39706 36.403 7.8 36.9 7.8Z" fill="white"/>
<path d="M42.9 7.8C43.3971 7.8 43.8 7.39706 43.8 6.9C43.8 6.40294 43.3971 6 42.9 6C42.403 6 42 6.40294 42 6.9C42 7.39706 42.403 7.8 42.9 7.8Z" fill="white"/>
<path d="M48.9 7.8C49.3971 7.8 49.8 7.39706 49.8 6.9C49.8 6.40294 49.3971 6 48.9 6C48.403 6 48 6.40294 48 6.9C48 7.39706 48.403 7.8 48.9 7.8Z" fill="white"/>
<path d="M54.9 7.8C55.3971 7.8 55.8 7.39706 55.8 6.9C55.8 6.40294 55.3971 6 54.9 6C54.403 6 54 6.40294 54 6.9C54 7.39706 54.403 7.8 54.9 7.8Z" fill="white"/>
<path d="M60.9 7.8C61.3971 7.8 61.8 7.39706 61.8 6.9C61.8 6.40294 61.3971 6 60.9 6C60.403 6 60 6.40294 60 6.9C60 7.39706 60.403 7.8 60.9 7.8Z" fill="white"/>
<path d="M66.9 7.8C67.3971 7.8 67.8 7.39706 67.8 6.9C67.8 6.40294 67.3971 6 66.9 6C66.403 6 66 6.40294 66 6.9C66 7.39706 66.403 7.8 66.9 7.8Z" fill="white"/>
<path d="M72.9 7.8C73.3971 7.8 73.8 7.39706 73.8 6.9C73.8 6.40294 73.3971 6 72.9 6C72.403 6 72 6.40294 72 6.9C72 7.39706 72.403 7.8 72.9 7.8Z" fill="white"/>
<path d="M78.9 7.8C79.3971 7.8 79.8 7.39706 79.8 6.9C79.8 6.40294 79.3971 6 78.9 6C78.403 6 78 6.40294 78 6.9C78 7.39706 78.403 7.8 78.9 7.8Z" fill="white"/>
<path d="M84.9 7.8C85.3971 7.8 85.8 7.39706 85.8 6.9C85.8 6.40294 85.3971 6 84.9 6C84.403 6 84 6.40294 84 6.9C84 7.39706 84.403 7.8 84.9 7.8Z" fill="white"/>
<path d="M90.9 7.8C91.3971 7.8 91.8 7.39706 91.8 6.9C91.8 6.40294 91.3971 6 90.9 6C90.403 6 90 6.40294 90 6.9C90 7.39706 90.403 7.8 90.9 7.8Z" fill="white"/>
<path d="M96.9 7.8C97.3971 7.8 97.8 7.39706 97.8 6.9C97.8 6.40294 97.3971 6 96.9 6C96.403 6 96 6.40294 96 6.9C96 7.39706 96.403 7.8 96.9 7.8Z" fill="white"/>
<path d="M102.9 7.8C103.397 7.8 103.8 7.39706 103.8 6.9C103.8 6.40294 103.397 6 102.9 6C102.403 6 102 6.40294 102 6.9C102 7.39706 102.403 7.8 102.9 7.8Z" fill="white"/>
<path d="M108.9 7.8C109.397 7.8 109.8 7.39706 109.8 6.9C109.8 6.40294 109.397 6 108.9 6C108.403 6 108 6.40294 108 6.9C108 7.39706 108.403 7.8 108.9 7.8Z" fill="white"/>
<path d="M114.9 7.8C115.397 7.8 115.8 7.39706 115.8 6.9C115.8 6.40294 115.397 6 114.9 6C114.403 6 114 6.40294 114 6.9C114 7.39706 114.403 7.8 114.9 7.8Z" fill="white"/>
<path d="M120.9 7.8C121.397 7.8 121.8 7.39706 121.8 6.9C121.8 6.40294 121.397 6 120.9 6C120.403 6 120 6.40294 120 6.9C120 7.39706 120.403 7.8 120.9 7.8Z" fill="white"/>
<path d="M126.9 7.8C127.397 7.8 127.8 7.39706 127.8 6.9C127.8 6.40294 127.397 6 126.9 6C126.403 6 126 6.40294 126 6.9C126 7.39706 126.403 7.8 126.9 7.8Z" fill="white"/>
<path d="M132.9 7.8C133.397 7.8 133.8 7.39706 133.8 6.9C133.8 6.40294 133.397 6 132.9 6C132.403 6 132 6.40294 132 6.9C132 7.39706 132.403 7.8 132.9 7.8Z" fill="white"/>
<path d="M138.9 7.8C139.397 7.8 139.8 7.39706 139.8 6.9C139.8 6.40294 139.397 6 138.9 6C138.403 6 138 6.40294 138 6.9C138 7.39706 138.403 7.8 138.9 7.8Z" fill="white"/>
<path d="M144.9 7.8C145.397 7.8 145.8 7.39706 145.8 6.9C145.8 6.40294 145.397 6 144.9 6C144.403 6 144 6.40294 144 6.9C144 7.39706 144.403 7.8 144.9 7.8Z" fill="white"/>
<path d="M150.9 7.8C151.397 7.8 151.8 7.39706 151.8 6.9C151.8 6.40294 151.397 6 150.9 6C150.403 6 150 6.40294 150 6.9C150 7.39706 150.403 7.8 150.9 7.8Z" fill="white"/>
<path d="M156.9 7.8C157.397 7.8 157.8 7.39706 157.8 6.9C157.8 6.40294 157.397 6 156.9 6C156.403 6 156 6.40294 156 6.9C156 7.39706 156.403 7.8 156.9 7.8Z" fill="white"/>
<path d="M162.9 7.8C163.397 7.8 163.8 7.39706 163.8 6.9C163.8 6.40294 163.397 6 162.9 6C162.403 6 162 6.40294 162 6.9C162 7.39706 162.403 7.8 162.9 7.8Z" fill="white"/>
<path d="M168.9 7.8C169.397 7.8 169.8 7.39706 169.8 6.9C169.8 6.40294 169.397 6 168.9 6C168.403 6 168 6.40294 168 6.9C168 7.39706 168.403 7.8 168.9 7.8Z" fill="white"/>
<path d="M174.9 7.8C175.397 7.8 175.8 7.39706 175.8 6.9C175.8 6.40294 175.397 6 174.9 6C174.403 6 174 6.40294 174 6.9C174 7.39706 174.403 7.8 174.9 7.8Z" fill="white"/>
<path d="M180.9 7.8C181.397 7.8 181.8 7.39706 181.8 6.9C181.8 6.40294 181.397 6 180.9 6C180.403 6 180 6.40294 180 6.9C180 7.39706 180.403 7.8 180.9 7.8Z" fill="white"/>
<path d="M186.9 7.8C187.397 7.8 187.8 7.39706 187.8 6.9C187.8 6.40294 187.397 6 186.9 6C186.403 6 186 6.40294 186 6.9C186 7.39706 186.403 7.8 186.9 7.8Z" fill="white"/>
<path d="M192.9 7.8C193.397 7.8 193.8 7.39706 193.8 6.9C193.8 6.40294 193.397 6 192.9 6C192.403 6 192 6.40294 192 6.9C192 7.39706 192.403 7.8 192.9 7.8Z" fill="white"/>
<path d="M198.9 7.8C199.397 7.8 199.8 7.39706 199.8 6.9C199.8 6.40294 199.397 6 198.9 6C198.403 6 198 6.40294 198 6.9C198 7.39706 198.403 7.8 198.9 7.8Z" fill="white"/>
<path d="M204.9 7.8C205.397 7.8 205.8 7.39706 205.8 6.9C205.8 6.40294 205.397 6 204.9 6C204.403 6 204 6.40294 204 6.9C204 7.39706 204.403 7.8 204.9 7.8Z" fill="white"/>
<path d="M210.9 7.8C211.397 7.8 211.8 7.39706 211.8 6.9C211.8 6.40294 211.397 6 210.9 6C210.403 6 210 6.40294 210 6.9C210 7.39706 210.403 7.8 210.9 7.8Z" fill="white"/>
<path d="M216.9 7.8C217.397 7.8 217.8 7.39706 217.8 6.9C217.8 6.40294 217.397 6 216.9 6C216.403 6 216 6.40294 216 6.9C216 7.39706 216.403 7.8 216.9 7.8Z" fill="white"/>
<path d="M222.9 7.8C223.397 7.8 223.8 7.39706 223.8 6.9C223.8 6.40294 223.397 6 222.9 6C222.403 6 222 6.40294 222 6.9C222 7.39706 222.403 7.8 222.9 7.8Z" fill="white"/>
<path d="M228.9 7.8C229.397 7.8 229.8 7.39706 229.8 6.9C229.8 6.40294 229.397 6 228.9 6C228.403 6 228 6.40294 228 6.9C228 7.39706 228.403 7.8 228.9 7.8Z" fill="white"/>
<path d="M234.9 7.8C235.397 7.8 235.8 7.39706 235.8 6.9C235.8 6.40294 235.397 6 234.9 6C234.403 6 234 6.40294 234 6.9C234 7.39706 234.403 7.8 234.9 7.8Z" fill="white"/>
<path d="M0.900009 13.8C1.39707 13.8 1.8 13.3971 1.8 12.9C1.8 12.4029 1.39707 12 0.900009 12C0.402953 12 0 12.4029 0 12.9C0 13.3971 0.402953 13.8 0.900009 13.8Z" fill="white"/>
<path d="M6.90001 13.8C7.39707 13.8 7.8 13.3971 7.8 12.9C7.8 12.4029 7.39707 12 6.90001 12C6.40295 12 6 12.4029 6 12.9C6 13.3971 6.40295 13.8 6.90001 13.8Z" fill="white"/>
<path d="M12.9 13.8C13.3971 13.8 13.8 13.3971 13.8 12.9C13.8 12.4029 13.3971 12 12.9 12C12.403 12 12 12.4029 12 12.9C12 13.3971 12.403 13.8 12.9 13.8Z" fill="white"/>
<path d="M18.9 13.8C19.3971 13.8 19.8 13.3971 19.8 12.9C19.8 12.4029 19.3971 12 18.9 12C18.403 12 18 12.4029 18 12.9C18 13.3971 18.403 13.8 18.9 13.8Z" fill="white"/>
<path d="M24.9 13.8C25.3971 13.8 25.8 13.3971 25.8 12.9C25.8 12.4029 25.3971 12 24.9 12C24.403 12 24 12.4029 24 12.9C24 13.3971 24.403 13.8 24.9 13.8Z" fill="white"/>
<path d="M30.9 13.8C31.3971 13.8 31.8 13.3971 31.8 12.9C31.8 12.4029 31.3971 12 30.9 12C30.403 12 30 12.4029 30 12.9C30 13.3971 30.403 13.8 30.9 13.8Z" fill="white"/>
<path d="M36.9 13.8C37.3971 13.8 37.8 13.3971 37.8 12.9C37.8 12.4029 37.3971 12 36.9 12C36.403 12 36 12.4029 36 12.9C36 13.3971 36.403 13.8 36.9 13.8Z" fill="white"/>
<path d="M42.9 13.8C43.3971 13.8 43.8 13.3971 43.8 12.9C43.8 12.4029 43.3971 12 42.9 12C42.403 12 42 12.4029 42 12.9C42 13.3971 42.403 13.8 42.9 13.8Z" fill="white"/>
<path d="M48.9 13.8C49.3971 13.8 49.8 13.3971 49.8 12.9C49.8 12.4029 49.3971 12 48.9 12C48.403 12 48 12.4029 48 12.9C48 13.3971 48.403 13.8 48.9 13.8Z" fill="white"/>
<path d="M54.9 13.8C55.3971 13.8 55.8 13.3971 55.8 12.9C55.8 12.4029 55.3971 12 54.9 12C54.403 12 54 12.4029 54 12.9C54 13.3971 54.403 13.8 54.9 13.8Z" fill="white"/>
<path d="M60.9 13.8C61.3971 13.8 61.8 13.3971 61.8 12.9C61.8 12.4029 61.3971 12 60.9 12C60.403 12 60 12.4029 60 12.9C60 13.3971 60.403 13.8 60.9 13.8Z" fill="white"/>
<path d="M66.9 13.8C67.3971 13.8 67.8 13.3971 67.8 12.9C67.8 12.4029 67.3971 12 66.9 12C66.403 12 66 12.4029 66 12.9C66 13.3971 66.403 13.8 66.9 13.8Z" fill="white"/>
<path d="M72.9 13.8C73.3971 13.8 73.8 13.3971 73.8 12.9C73.8 12.4029 73.3971 12 72.9 12C72.403 12 72 12.4029 72 12.9C72 13.3971 72.403 13.8 72.9 13.8Z" fill="white"/>
<path d="M78.9 13.8C79.3971 13.8 79.8 13.3971 79.8 12.9C79.8 12.4029 79.3971 12 78.9 12C78.403 12 78 12.4029 78 12.9C78 13.3971 78.403 13.8 78.9 13.8Z" fill="white"/>
<path d="M84.9 13.8C85.3971 13.8 85.8 13.3971 85.8 12.9C85.8 12.4029 85.3971 12 84.9 12C84.403 12 84 12.4029 84 12.9C84 13.3971 84.403 13.8 84.9 13.8Z" fill="white"/>
<path d="M90.9 13.8C91.3971 13.8 91.8 13.3971 91.8 12.9C91.8 12.4029 91.3971 12 90.9 12C90.403 12 90 12.4029 90 12.9C90 13.3971 90.403 13.8 90.9 13.8Z" fill="white"/>
<path d="M96.9 13.8C97.3971 13.8 97.8 13.3971 97.8 12.9C97.8 12.4029 97.3971 12 96.9 12C96.403 12 96 12.4029 96 12.9C96 13.3971 96.403 13.8 96.9 13.8Z" fill="white"/>
<path d="M102.9 13.8C103.397 13.8 103.8 13.3971 103.8 12.9C103.8 12.4029 103.397 12 102.9 12C102.403 12 102 12.4029 102 12.9C102 13.3971 102.403 13.8 102.9 13.8Z" fill="white"/>
<path d="M108.9 13.8C109.397 13.8 109.8 13.3971 109.8 12.9C109.8 12.4029 109.397 12 108.9 12C108.403 12 108 12.4029 108 12.9C108 13.3971 108.403 13.8 108.9 13.8Z" fill="white"/>
<path d="M114.9 13.8C115.397 13.8 115.8 13.3971 115.8 12.9C115.8 12.4029 115.397 12 114.9 12C114.403 12 114 12.4029 114 12.9C114 13.3971 114.403 13.8 114.9 13.8Z" fill="white"/>
<path d="M120.9 13.8C121.397 13.8 121.8 13.3971 121.8 12.9C121.8 12.4029 121.397 12 120.9 12C120.403 12 120 12.4029 120 12.9C120 13.3971 120.403 13.8 120.9 13.8Z" fill="white"/>
<path d="M126.9 13.8C127.397 13.8 127.8 13.3971 127.8 12.9C127.8 12.4029 127.397 12 126.9 12C126.403 12 126 12.4029 126 12.9C126 13.3971 126.403 13.8 126.9 13.8Z" fill="white"/>
<path d="M132.9 13.8C133.397 13.8 133.8 13.3971 133.8 12.9C133.8 12.4029 133.397 12 132.9 12C132.403 12 132 12.4029 132 12.9C132 13.3971 132.403 13.8 132.9 13.8Z" fill="white"/>
<path d="M138.9 13.8C139.397 13.8 139.8 13.3971 139.8 12.9C139.8 12.4029 139.397 12 138.9 12C138.403 12 138 12.4029 138 12.9C138 13.3971 138.403 13.8 138.9 13.8Z" fill="white"/>
<path d="M144.9 13.8C145.397 13.8 145.8 13.3971 145.8 12.9C145.8 12.4029 145.397 12 144.9 12C144.403 12 144 12.4029 144 12.9C144 13.3971 144.403 13.8 144.9 13.8Z" fill="white"/>
<path d="M150.9 13.8C151.397 13.8 151.8 13.3971 151.8 12.9C151.8 12.4029 151.397 12 150.9 12C150.403 12 150 12.4029 150 12.9C150 13.3971 150.403 13.8 150.9 13.8Z" fill="white"/>
<path d="M156.9 13.8C157.397 13.8 157.8 13.3971 157.8 12.9C157.8 12.4029 157.397 12 156.9 12C156.403 12 156 12.4029 156 12.9C156 13.3971 156.403 13.8 156.9 13.8Z" fill="white"/>
<path d="M162.9 13.8C163.397 13.8 163.8 13.3971 163.8 12.9C163.8 12.4029 163.397 12 162.9 12C162.403 12 162 12.4029 162 12.9C162 13.3971 162.403 13.8 162.9 13.8Z" fill="white"/>
<path d="M168.9 13.8C169.397 13.8 169.8 13.3971 169.8 12.9C169.8 12.4029 169.397 12 168.9 12C168.403 12 168 12.4029 168 12.9C168 13.3971 168.403 13.8 168.9 13.8Z" fill="white"/>
<path d="M174.9 13.8C175.397 13.8 175.8 13.3971 175.8 12.9C175.8 12.4029 175.397 12 174.9 12C174.403 12 174 12.4029 174 12.9C174 13.3971 174.403 13.8 174.9 13.8Z" fill="white"/>
<path d="M180.9 13.8C181.397 13.8 181.8 13.3971 181.8 12.9C181.8 12.4029 181.397 12 180.9 12C180.403 12 180 12.4029 180 12.9C180 13.3971 180.403 13.8 180.9 13.8Z" fill="white"/>
<path d="M186.9 13.8C187.397 13.8 187.8 13.3971 187.8 12.9C187.8 12.4029 187.397 12 186.9 12C186.403 12 186 12.4029 186 12.9C186 13.3971 186.403 13.8 186.9 13.8Z" fill="white"/>
<path d="M192.9 13.8C193.397 13.8 193.8 13.3971 193.8 12.9C193.8 12.4029 193.397 12 192.9 12C192.403 12 192 12.4029 192 12.9C192 13.3971 192.403 13.8 192.9 13.8Z" fill="white"/>
<path d="M198.9 13.8C199.397 13.8 199.8 13.3971 199.8 12.9C199.8 12.4029 199.397 12 198.9 12C198.403 12 198 12.4029 198 12.9C198 13.3971 198.403 13.8 198.9 13.8Z" fill="white"/>
<path d="M204.9 13.8C205.397 13.8 205.8 13.3971 205.8 12.9C205.8 12.4029 205.397 12 204.9 12C204.403 12 204 12.4029 204 12.9C204 13.3971 204.403 13.8 204.9 13.8Z" fill="white"/>
<path d="M210.9 13.8C211.397 13.8 211.8 13.3971 211.8 12.9C211.8 12.4029 211.397 12 210.9 12C210.403 12 210 12.4029 210 12.9C210 13.3971 210.403 13.8 210.9 13.8Z" fill="white"/>
<path d="M216.9 13.8C217.397 13.8 217.8 13.3971 217.8 12.9C217.8 12.4029 217.397 12 216.9 12C216.403 12 216 12.4029 216 12.9C216 13.3971 216.403 13.8 216.9 13.8Z" fill="white"/>
<path d="M222.9 13.8C223.397 13.8 223.8 13.3971 223.8 12.9C223.8 12.4029 223.397 12 222.9 12C222.403 12 222 12.4029 222 12.9C222 13.3971 222.403 13.8 222.9 13.8Z" fill="white"/>
<path d="M228.9 13.8C229.397 13.8 229.8 13.3971 229.8 12.9C229.8 12.4029 229.397 12 228.9 12C228.403 12 228 12.4029 228 12.9C228 13.3971 228.403 13.8 228.9 13.8Z" fill="white"/>
<path d="M234.9 13.8C235.397 13.8 235.8 13.3971 235.8 12.9C235.8 12.4029 235.397 12 234.9 12C234.403 12 234 12.4029 234 12.9C234 13.3971 234.403 13.8 234.9 13.8Z" fill="white"/>
<path d="M0.900009 19.8C1.39707 19.8 1.8 19.3971 1.8 18.9C1.8 18.4029 1.39707 18 0.900009 18C0.402953 18 0 18.4029 0 18.9C0 19.3971 0.402953 19.8 0.900009 19.8Z" fill="white"/>
<path d="M6.90001 19.8C7.39707 19.8 7.8 19.3971 7.8 18.9C7.8 18.4029 7.39707 18 6.90001 18C6.40295 18 6 18.4029 6 18.9C6 19.3971 6.40295 19.8 6.90001 19.8Z" fill="white"/>
<path d="M12.9 19.8C13.3971 19.8 13.8 19.3971 13.8 18.9C13.8 18.4029 13.3971 18 12.9 18C12.403 18 12 18.4029 12 18.9C12 19.3971 12.403 19.8 12.9 19.8Z" fill="white"/>
<path d="M18.9 19.8C19.3971 19.8 19.8 19.3971 19.8 18.9C19.8 18.4029 19.3971 18 18.9 18C18.403 18 18 18.4029 18 18.9C18 19.3971 18.403 19.8 18.9 19.8Z" fill="white"/>
<path d="M24.9 19.8C25.3971 19.8 25.8 19.3971 25.8 18.9C25.8 18.4029 25.3971 18 24.9 18C24.403 18 24 18.4029 24 18.9C24 19.3971 24.403 19.8 24.9 19.8Z" fill="white"/>
<path d="M30.9 19.8C31.3971 19.8 31.8 19.3971 31.8 18.9C31.8 18.4029 31.3971 18 30.9 18C30.403 18 30 18.4029 30 18.9C30 19.3971 30.403 19.8 30.9 19.8Z" fill="white"/>
<path d="M36.9 19.8C37.3971 19.8 37.8 19.3971 37.8 18.9C37.8 18.4029 37.3971 18 36.9 18C36.403 18 36 18.4029 36 18.9C36 19.3971 36.403 19.8 36.9 19.8Z" fill="white"/>
<path d="M42.9 19.8C43.3971 19.8 43.8 19.3971 43.8 18.9C43.8 18.4029 43.3971 18 42.9 18C42.403 18 42 18.4029 42 18.9C42 19.3971 42.403 19.8 42.9 19.8Z" fill="white"/>
<path d="M48.9 19.8C49.3971 19.8 49.8 19.3971 49.8 18.9C49.8 18.4029 49.3971 18 48.9 18C48.403 18 48 18.4029 48 18.9C48 19.3971 48.403 19.8 48.9 19.8Z" fill="white"/>
<path d="M54.9 19.8C55.3971 19.8 55.8 19.3971 55.8 18.9C55.8 18.4029 55.3971 18 54.9 18C54.403 18 54 18.4029 54 18.9C54 19.3971 54.403 19.8 54.9 19.8Z" fill="white"/>
<path d="M60.9 19.8C61.3971 19.8 61.8 19.3971 61.8 18.9C61.8 18.4029 61.3971 18 60.9 18C60.403 18 60 18.4029 60 18.9C60 19.3971 60.403 19.8 60.9 19.8Z" fill="white"/>
<path d="M66.9 19.8C67.3971 19.8 67.8 19.3971 67.8 18.9C67.8 18.4029 67.3971 18 66.9 18C66.403 18 66 18.4029 66 18.9C66 19.3971 66.403 19.8 66.9 19.8Z" fill="white"/>
<path d="M72.9 19.8C73.3971 19.8 73.8 19.3971 73.8 18.9C73.8 18.4029 73.3971 18 72.9 18C72.403 18 72 18.4029 72 18.9C72 19.3971 72.403 19.8 72.9 19.8Z" fill="white"/>
<path d="M78.9 19.8C79.3971 19.8 79.8 19.3971 79.8 18.9C79.8 18.4029 79.3971 18 78.9 18C78.403 18 78 18.4029 78 18.9C78 19.3971 78.403 19.8 78.9 19.8Z" fill="white"/>
<path d="M84.9 19.8C85.3971 19.8 85.8 19.3971 85.8 18.9C85.8 18.4029 85.3971 18 84.9 18C84.403 18 84 18.4029 84 18.9C84 19.3971 84.403 19.8 84.9 19.8Z" fill="white"/>
<path d="M90.9 19.8C91.3971 19.8 91.8 19.3971 91.8 18.9C91.8 18.4029 91.3971 18 90.9 18C90.403 18 90 18.4029 90 18.9C90 19.3971 90.403 19.8 90.9 19.8Z" fill="white"/>
<path d="M96.9 19.8C97.3971 19.8 97.8 19.3971 97.8 18.9C97.8 18.4029 97.3971 18 96.9 18C96.403 18 96 18.4029 96 18.9C96 19.3971 96.403 19.8 96.9 19.8Z" fill="white"/>
<path d="M102.9 19.8C103.397 19.8 103.8 19.3971 103.8 18.9C103.8 18.4029 103.397 18 102.9 18C102.403 18 102 18.4029 102 18.9C102 19.3971 102.403 19.8 102.9 19.8Z" fill="white"/>
<path d="M108.9 19.8C109.397 19.8 109.8 19.3971 109.8 18.9C109.8 18.4029 109.397 18 108.9 18C108.403 18 108 18.4029 108 18.9C108 19.3971 108.403 19.8 108.9 19.8Z" fill="white"/>
<path d="M114.9 19.8C115.397 19.8 115.8 19.3971 115.8 18.9C115.8 18.4029 115.397 18 114.9 18C114.403 18 114 18.4029 114 18.9C114 19.3971 114.403 19.8 114.9 19.8Z" fill="white"/>
<path d="M120.9 19.8C121.397 19.8 121.8 19.3971 121.8 18.9C121.8 18.4029 121.397 18 120.9 18C120.403 18 120 18.4029 120 18.9C120 19.3971 120.403 19.8 120.9 19.8Z" fill="white"/>
<path d="M126.9 19.8C127.397 19.8 127.8 19.3971 127.8 18.9C127.8 18.4029 127.397 18 126.9 18C126.403 18 126 18.4029 126 18.9C126 19.3971 126.403 19.8 126.9 19.8Z" fill="white"/>
<path d="M132.9 19.8C133.397 19.8 133.8 19.3971 133.8 18.9C133.8 18.4029 133.397 18 132.9 18C132.403 18 132 18.4029 132 18.9C132 19.3971 132.403 19.8 132.9 19.8Z" fill="white"/>
<path d="M138.9 19.8C139.397 19.8 139.8 19.3971 139.8 18.9C139.8 18.4029 139.397 18 138.9 18C138.403 18 138 18.4029 138 18.9C138 19.3971 138.403 19.8 138.9 19.8Z" fill="white"/>
<path d="M144.9 19.8C145.397 19.8 145.8 19.3971 145.8 18.9C145.8 18.4029 145.397 18 144.9 18C144.403 18 144 18.4029 144 18.9C144 19.3971 144.403 19.8 144.9 19.8Z" fill="white"/>
<path d="M150.9 19.8C151.397 19.8 151.8 19.3971 151.8 18.9C151.8 18.4029 151.397 18 150.9 18C150.403 18 150 18.4029 150 18.9C150 19.3971 150.403 19.8 150.9 19.8Z" fill="white"/>
<path d="M156.9 19.8C157.397 19.8 157.8 19.3971 157.8 18.9C157.8 18.4029 157.397 18 156.9 18C156.403 18 156 18.4029 156 18.9C156 19.3971 156.403 19.8 156.9 19.8Z" fill="white"/>
<path d="M162.9 19.8C163.397 19.8 163.8 19.3971 163.8 18.9C163.8 18.4029 163.397 18 162.9 18C162.403 18 162 18.4029 162 18.9C162 19.3971 162.403 19.8 162.9 19.8Z" fill="white"/>
<path d="M168.9 19.8C169.397 19.8 169.8 19.3971 169.8 18.9C169.8 18.4029 169.397 18 168.9 18C168.403 18 168 18.4029 168 18.9C168 19.3971 168.403 19.8 168.9 19.8Z" fill="white"/>
<path d="M174.9 19.8C175.397 19.8 175.8 19.3971 175.8 18.9C175.8 18.4029 175.397 18 174.9 18C174.403 18 174 18.4029 174 18.9C174 19.3971 174.403 19.8 174.9 19.8Z" fill="white"/>
<path d="M180.9 19.8C181.397 19.8 181.8 19.3971 181.8 18.9C181.8 18.4029 181.397 18 180.9 18C180.403 18 180 18.4029 180 18.9C180 19.3971 180.403 19.8 180.9 19.8Z" fill="white"/>
<path d="M186.9 19.8C187.397 19.8 187.8 19.3971 187.8 18.9C187.8 18.4029 187.397 18 186.9 18C186.403 18 186 18.4029 186 18.9C186 19.3971 186.403 19.8 186.9 19.8Z" fill="white"/>
<path d="M192.9 19.8C193.397 19.8 193.8 19.3971 193.8 18.9C193.8 18.4029 193.397 18 192.9 18C192.403 18 192 18.4029 192 18.9C192 19.3971 192.403 19.8 192.9 19.8Z" fill="white"/>
<path d="M198.9 19.8C199.397 19.8 199.8 19.3971 199.8 18.9C199.8 18.4029 199.397 18 198.9 18C198.403 18 198 18.4029 198 18.9C198 19.3971 198.403 19.8 198.9 19.8Z" fill="white"/>
<path d="M204.9 19.8C205.397 19.8 205.8 19.3971 205.8 18.9C205.8 18.4029 205.397 18 204.9 18C204.403 18 204 18.4029 204 18.9C204 19.3971 204.403 19.8 204.9 19.8Z" fill="white"/>
<path d="M210.9 19.8C211.397 19.8 211.8 19.3971 211.8 18.9C211.8 18.4029 211.397 18 210.9 18C210.403 18 210 18.4029 210 18.9C210 19.3971 210.403 19.8 210.9 19.8Z" fill="white"/>
<path d="M216.9 19.8C217.397 19.8 217.8 19.3971 217.8 18.9C217.8 18.4029 217.397 18 216.9 18C216.403 18 216 18.4029 216 18.9C216 19.3971 216.403 19.8 216.9 19.8Z" fill="white"/>
<path d="M222.9 19.8C223.397 19.8 223.8 19.3971 223.8 18.9C223.8 18.4029 223.397 18 222.9 18C222.403 18 222 18.4029 222 18.9C222 19.3971 222.403 19.8 222.9 19.8Z" fill="white"/>
<path d="M228.9 19.8C229.397 19.8 229.8 19.3971 229.8 18.9C229.8 18.4029 229.397 18 228.9 18C228.403 18 228 18.4029 228 18.9C228 19.3971 228.403 19.8 228.9 19.8Z" fill="white"/>
<path d="M234.9 19.8C235.397 19.8 235.8 19.3971 235.8 18.9C235.8 18.4029 235.397 18 234.9 18C234.403 18 234 18.4029 234 18.9C234 19.3971 234.403 19.8 234.9 19.8Z" fill="white"/>
<path d="M0.900009 25.8C1.39707 25.8 1.8 25.3971 1.8 24.9C1.8 24.4029 1.39707 24 0.900009 24C0.402953 24 0 24.4029 0 24.9C0 25.3971 0.402953 25.8 0.900009 25.8Z" fill="white"/>
<path d="M6.90001 25.8C7.39707 25.8 7.8 25.3971 7.8 24.9C7.8 24.4029 7.39707 24 6.90001 24C6.40295 24 6 24.4029 6 24.9C6 25.3971 6.40295 25.8 6.90001 25.8Z" fill="white"/>
<path d="M12.9 25.8C13.3971 25.8 13.8 25.3971 13.8 24.9C13.8 24.4029 13.3971 24 12.9 24C12.403 24 12 24.4029 12 24.9C12 25.3971 12.403 25.8 12.9 25.8Z" fill="white"/>
<path d="M18.9 25.8C19.3971 25.8 19.8 25.3971 19.8 24.9C19.8 24.4029 19.3971 24 18.9 24C18.403 24 18 24.4029 18 24.9C18 25.3971 18.403 25.8 18.9 25.8Z" fill="white"/>
<path d="M24.9 25.8C25.3971 25.8 25.8 25.3971 25.8 24.9C25.8 24.4029 25.3971 24 24.9 24C24.403 24 24 24.4029 24 24.9C24 25.3971 24.403 25.8 24.9 25.8Z" fill="white"/>
<path d="M30.9 25.8C31.3971 25.8 31.8 25.3971 31.8 24.9C31.8 24.4029 31.3971 24 30.9 24C30.403 24 30 24.4029 30 24.9C30 25.3971 30.403 25.8 30.9 25.8Z" fill="white"/>
<path d="M36.9 25.8C37.3971 25.8 37.8 25.3971 37.8 24.9C37.8 24.4029 37.3971 24 36.9 24C36.403 24 36 24.4029 36 24.9C36 25.3971 36.403 25.8 36.9 25.8Z" fill="white"/>
<path d="M42.9 25.8C43.3971 25.8 43.8 25.3971 43.8 24.9C43.8 24.4029 43.3971 24 42.9 24C42.403 24 42 24.4029 42 24.9C42 25.3971 42.403 25.8 42.9 25.8Z" fill="white"/>
<path d="M48.9 25.8C49.3971 25.8 49.8 25.3971 49.8 24.9C49.8 24.4029 49.3971 24 48.9 24C48.403 24 48 24.4029 48 24.9C48 25.3971 48.403 25.8 48.9 25.8Z" fill="white"/>
<path d="M54.9 25.8C55.3971 25.8 55.8 25.3971 55.8 24.9C55.8 24.4029 55.3971 24 54.9 24C54.403 24 54 24.4029 54 24.9C54 25.3971 54.403 25.8 54.9 25.8Z" fill="white"/>
<path d="M60.9 25.8C61.3971 25.8 61.8 25.3971 61.8 24.9C61.8 24.4029 61.3971 24 60.9 24C60.403 24 60 24.4029 60 24.9C60 25.3971 60.403 25.8 60.9 25.8Z" fill="white"/>
<path d="M66.9 25.8C67.3971 25.8 67.8 25.3971 67.8 24.9C67.8 24.4029 67.3971 24 66.9 24C66.403 24 66 24.4029 66 24.9C66 25.3971 66.403 25.8 66.9 25.8Z" fill="white"/>
<path d="M72.9 25.8C73.3971 25.8 73.8 25.3971 73.8 24.9C73.8 24.4029 73.3971 24 72.9 24C72.403 24 72 24.4029 72 24.9C72 25.3971 72.403 25.8 72.9 25.8Z" fill="white"/>
<path d="M78.9 25.8C79.3971 25.8 79.8 25.3971 79.8 24.9C79.8 24.4029 79.3971 24 78.9 24C78.403 24 78 24.4029 78 24.9C78 25.3971 78.403 25.8 78.9 25.8Z" fill="white"/>
<path d="M84.9 25.8C85.3971 25.8 85.8 25.3971 85.8 24.9C85.8 24.4029 85.3971 24 84.9 24C84.403 24 84 24.4029 84 24.9C84 25.3971 84.403 25.8 84.9 25.8Z" fill="white"/>
<path d="M90.9 25.8C91.3971 25.8 91.8 25.3971 91.8 24.9C91.8 24.4029 91.3971 24 90.9 24C90.403 24 90 24.4029 90 24.9C90 25.3971 90.403 25.8 90.9 25.8Z" fill="white"/>
<path d="M96.9 25.8C97.3971 25.8 97.8 25.3971 97.8 24.9C97.8 24.4029 97.3971 24 96.9 24C96.403 24 96 24.4029 96 24.9C96 25.3971 96.403 25.8 96.9 25.8Z" fill="white"/>
<path d="M102.9 25.8C103.397 25.8 103.8 25.3971 103.8 24.9C103.8 24.4029 103.397 24 102.9 24C102.403 24 102 24.4029 102 24.9C102 25.3971 102.403 25.8 102.9 25.8Z" fill="white"/>
<path d="M108.9 25.8C109.397 25.8 109.8 25.3971 109.8 24.9C109.8 24.4029 109.397 24 108.9 24C108.403 24 108 24.4029 108 24.9C108 25.3971 108.403 25.8 108.9 25.8Z" fill="white"/>
<path d="M114.9 25.8C115.397 25.8 115.8 25.3971 115.8 24.9C115.8 24.4029 115.397 24 114.9 24C114.403 24 114 24.4029 114 24.9C114 25.3971 114.403 25.8 114.9 25.8Z" fill="white"/>
<path d="M120.9 25.8C121.397 25.8 121.8 25.3971 121.8 24.9C121.8 24.4029 121.397 24 120.9 24C120.403 24 120 24.4029 120 24.9C120 25.3971 120.403 25.8 120.9 25.8Z" fill="white"/>
<path d="M126.9 25.8C127.397 25.8 127.8 25.3971 127.8 24.9C127.8 24.4029 127.397 24 126.9 24C126.403 24 126 24.4029 126 24.9C126 25.3971 126.403 25.8 126.9 25.8Z" fill="white"/>
<path d="M132.9 25.8C133.397 25.8 133.8 25.3971 133.8 24.9C133.8 24.4029 133.397 24 132.9 24C132.403 24 132 24.4029 132 24.9C132 25.3971 132.403 25.8 132.9 25.8Z" fill="white"/>
<path d="M138.9 25.8C139.397 25.8 139.8 25.3971 139.8 24.9C139.8 24.4029 139.397 24 138.9 24C138.403 24 138 24.4029 138 24.9C138 25.3971 138.403 25.8 138.9 25.8Z" fill="white"/>
<path d="M144.9 25.8C145.397 25.8 145.8 25.3971 145.8 24.9C145.8 24.4029 145.397 24 144.9 24C144.403 24 144 24.4029 144 24.9C144 25.3971 144.403 25.8 144.9 25.8Z" fill="white"/>
<path d="M150.9 25.8C151.397 25.8 151.8 25.3971 151.8 24.9C151.8 24.4029 151.397 24 150.9 24C150.403 24 150 24.4029 150 24.9C150 25.3971 150.403 25.8 150.9 25.8Z" fill="white"/>
<path d="M156.9 25.8C157.397 25.8 157.8 25.3971 157.8 24.9C157.8 24.4029 157.397 24 156.9 24C156.403 24 156 24.4029 156 24.9C156 25.3971 156.403 25.8 156.9 25.8Z" fill="white"/>
<path d="M162.9 25.8C163.397 25.8 163.8 25.3971 163.8 24.9C163.8 24.4029 163.397 24 162.9 24C162.403 24 162 24.4029 162 24.9C162 25.3971 162.403 25.8 162.9 25.8Z" fill="white"/>
<path d="M168.9 25.8C169.397 25.8 169.8 25.3971 169.8 24.9C169.8 24.4029 169.397 24 168.9 24C168.403 24 168 24.4029 168 24.9C168 25.3971 168.403 25.8 168.9 25.8Z" fill="white"/>
<path d="M174.9 25.8C175.397 25.8 175.8 25.3971 175.8 24.9C175.8 24.4029 175.397 24 174.9 24C174.403 24 174 24.4029 174 24.9C174 25.3971 174.403 25.8 174.9 25.8Z" fill="white"/>
<path d="M180.9 25.8C181.397 25.8 181.8 25.3971 181.8 24.9C181.8 24.4029 181.397 24 180.9 24C180.403 24 180 24.4029 180 24.9C180 25.3971 180.403 25.8 180.9 25.8Z" fill="white"/>
<path d="M186.9 25.8C187.397 25.8 187.8 25.3971 187.8 24.9C187.8 24.4029 187.397 24 186.9 24C186.403 24 186 24.4029 186 24.9C186 25.3971 186.403 25.8 186.9 25.8Z" fill="white"/>
<path d="M192.9 25.8C193.397 25.8 193.8 25.3971 193.8 24.9C193.8 24.4029 193.397 24 192.9 24C192.403 24 192 24.4029 192 24.9C192 25.3971 192.403 25.8 192.9 25.8Z" fill="white"/>
<path d="M198.9 25.8C199.397 25.8 199.8 25.3971 199.8 24.9C199.8 24.4029 199.397 24 198.9 24C198.403 24 198 24.4029 198 24.9C198 25.3971 198.403 25.8 198.9 25.8Z" fill="white"/>
<path d="M204.9 25.8C205.397 25.8 205.8 25.3971 205.8 24.9C205.8 24.4029 205.397 24 204.9 24C204.403 24 204 24.4029 204 24.9C204 25.3971 204.403 25.8 204.9 25.8Z" fill="white"/>
<path d="M210.9 25.8C211.397 25.8 211.8 25.3971 211.8 24.9C211.8 24.4029 211.397 24 210.9 24C210.403 24 210 24.4029 210 24.9C210 25.3971 210.403 25.8 210.9 25.8Z" fill="white"/>
<path d="M216.9 25.8C217.397 25.8 217.8 25.3971 217.8 24.9C217.8 24.4029 217.397 24 216.9 24C216.403 24 216 24.4029 216 24.9C216 25.3971 216.403 25.8 216.9 25.8Z" fill="white"/>
<path d="M222.9 25.8C223.397 25.8 223.8 25.3971 223.8 24.9C223.8 24.4029 223.397 24 222.9 24C222.403 24 222 24.4029 222 24.9C222 25.3971 222.403 25.8 222.9 25.8Z" fill="white"/>
<path d="M228.9 25.8C229.397 25.8 229.8 25.3971 229.8 24.9C229.8 24.4029 229.397 24 228.9 24C228.403 24 228 24.4029 228 24.9C228 25.3971 228.403 25.8 228.9 25.8Z" fill="white"/>
<path d="M234.9 25.8C235.397 25.8 235.8 25.3971 235.8 24.9C235.8 24.4029 235.397 24 234.9 24C234.403 24 234 24.4029 234 24.9C234 25.3971 234.403 25.8 234.9 25.8Z" fill="white"/>
<path d="M0.900009 31.8C1.39707 31.8 1.8 31.3971 1.8 30.9C1.8 30.4029 1.39707 30 0.900009 30C0.402953 30 0 30.4029 0 30.9C0 31.3971 0.402953 31.8 0.900009 31.8Z" fill="white"/>
<path d="M6.90001 31.8C7.39707 31.8 7.8 31.3971 7.8 30.9C7.8 30.4029 7.39707 30 6.90001 30C6.40295 30 6 30.4029 6 30.9C6 31.3971 6.40295 31.8 6.90001 31.8Z" fill="white"/>
<path d="M12.9 31.8C13.3971 31.8 13.8 31.3971 13.8 30.9C13.8 30.4029 13.3971 30 12.9 30C12.403 30 12 30.4029 12 30.9C12 31.3971 12.403 31.8 12.9 31.8Z" fill="white"/>
<path d="M18.9 31.8C19.3971 31.8 19.8 31.3971 19.8 30.9C19.8 30.4029 19.3971 30 18.9 30C18.403 30 18 30.4029 18 30.9C18 31.3971 18.403 31.8 18.9 31.8Z" fill="white"/>
<path d="M24.9 31.8C25.3971 31.8 25.8 31.3971 25.8 30.9C25.8 30.4029 25.3971 30 24.9 30C24.403 30 24 30.4029 24 30.9C24 31.3971 24.403 31.8 24.9 31.8Z" fill="white"/>
<path d="M30.9 31.8C31.3971 31.8 31.8 31.3971 31.8 30.9C31.8 30.4029 31.3971 30 30.9 30C30.403 30 30 30.4029 30 30.9C30 31.3971 30.403 31.8 30.9 31.8Z" fill="white"/>
<path d="M36.9 31.8C37.3971 31.8 37.8 31.3971 37.8 30.9C37.8 30.4029 37.3971 30 36.9 30C36.403 30 36 30.4029 36 30.9C36 31.3971 36.403 31.8 36.9 31.8Z" fill="white"/>
<path d="M42.9 31.8C43.3971 31.8 43.8 31.3971 43.8 30.9C43.8 30.4029 43.3971 30 42.9 30C42.403 30 42 30.4029 42 30.9C42 31.3971 42.403 31.8 42.9 31.8Z" fill="white"/>
<path d="M48.9 31.8C49.3971 31.8 49.8 31.3971 49.8 30.9C49.8 30.4029 49.3971 30 48.9 30C48.403 30 48 30.4029 48 30.9C48 31.3971 48.403 31.8 48.9 31.8Z" fill="white"/>
<path d="M54.9 31.8C55.3971 31.8 55.8 31.3971 55.8 30.9C55.8 30.4029 55.3971 30 54.9 30C54.403 30 54 30.4029 54 30.9C54 31.3971 54.403 31.8 54.9 31.8Z" fill="white"/>
<path d="M60.9 31.8C61.3971 31.8 61.8 31.3971 61.8 30.9C61.8 30.4029 61.3971 30 60.9 30C60.403 30 60 30.4029 60 30.9C60 31.3971 60.403 31.8 60.9 31.8Z" fill="white"/>
<path d="M66.9 31.8C67.3971 31.8 67.8 31.3971 67.8 30.9C67.8 30.4029 67.3971 30 66.9 30C66.403 30 66 30.4029 66 30.9C66 31.3971 66.403 31.8 66.9 31.8Z" fill="white"/>
<path d="M72.9 31.8C73.3971 31.8 73.8 31.3971 73.8 30.9C73.8 30.4029 73.3971 30 72.9 30C72.403 30 72 30.4029 72 30.9C72 31.3971 72.403 31.8 72.9 31.8Z" fill="white"/>
<path d="M78.9 31.8C79.3971 31.8 79.8 31.3971 79.8 30.9C79.8 30.4029 79.3971 30 78.9 30C78.403 30 78 30.4029 78 30.9C78 31.3971 78.403 31.8 78.9 31.8Z" fill="white"/>
<path d="M84.9 31.8C85.3971 31.8 85.8 31.3971 85.8 30.9C85.8 30.4029 85.3971 30 84.9 30C84.403 30 84 30.4029 84 30.9C84 31.3971 84.403 31.8 84.9 31.8Z" fill="white"/>
<path d="M90.9 31.8C91.3971 31.8 91.8 31.3971 91.8 30.9C91.8 30.4029 91.3971 30 90.9 30C90.403 30 90 30.4029 90 30.9C90 31.3971 90.403 31.8 90.9 31.8Z" fill="white"/>
<path d="M96.9 31.8C97.3971 31.8 97.8 31.3971 97.8 30.9C97.8 30.4029 97.3971 30 96.9 30C96.403 30 96 30.4029 96 30.9C96 31.3971 96.403 31.8 96.9 31.8Z" fill="white"/>
<path d="M102.9 31.8C103.397 31.8 103.8 31.3971 103.8 30.9C103.8 30.4029 103.397 30 102.9 30C102.403 30 102 30.4029 102 30.9C102 31.3971 102.403 31.8 102.9 31.8Z" fill="white"/>
<path d="M108.9 31.8C109.397 31.8 109.8 31.3971 109.8 30.9C109.8 30.4029 109.397 30 108.9 30C108.403 30 108 30.4029 108 30.9C108 31.3971 108.403 31.8 108.9 31.8Z" fill="white"/>
<path d="M114.9 31.8C115.397 31.8 115.8 31.3971 115.8 30.9C115.8 30.4029 115.397 30 114.9 30C114.403 30 114 30.4029 114 30.9C114 31.3971 114.403 31.8 114.9 31.8Z" fill="white"/>
<path d="M120.9 31.8C121.397 31.8 121.8 31.3971 121.8 30.9C121.8 30.4029 121.397 30 120.9 30C120.403 30 120 30.4029 120 30.9C120 31.3971 120.403 31.8 120.9 31.8Z" fill="white"/>
<path d="M126.9 31.8C127.397 31.8 127.8 31.3971 127.8 30.9C127.8 30.4029 127.397 30 126.9 30C126.403 30 126 30.4029 126 30.9C126 31.3971 126.403 31.8 126.9 31.8Z" fill="white"/>
<path d="M132.9 31.8C133.397 31.8 133.8 31.3971 133.8 30.9C133.8 30.4029 133.397 30 132.9 30C132.403 30 132 30.4029 132 30.9C132 31.3971 132.403 31.8 132.9 31.8Z" fill="white"/>
<path d="M138.9 31.8C139.397 31.8 139.8 31.3971 139.8 30.9C139.8 30.4029 139.397 30 138.9 30C138.403 30 138 30.4029 138 30.9C138 31.3971 138.403 31.8 138.9 31.8Z" fill="white"/>
<path d="M144.9 31.8C145.397 31.8 145.8 31.3971 145.8 30.9C145.8 30.4029 145.397 30 144.9 30C144.403 30 144 30.4029 144 30.9C144 31.3971 144.403 31.8 144.9 31.8Z" fill="white"/>
<path d="M150.9 31.8C151.397 31.8 151.8 31.3971 151.8 30.9C151.8 30.4029 151.397 30 150.9 30C150.403 30 150 30.4029 150 30.9C150 31.3971 150.403 31.8 150.9 31.8Z" fill="white"/>
<path d="M156.9 31.8C157.397 31.8 157.8 31.3971 157.8 30.9C157.8 30.4029 157.397 30 156.9 30C156.403 30 156 30.4029 156 30.9C156 31.3971 156.403 31.8 156.9 31.8Z" fill="white"/>
<path d="M162.9 31.8C163.397 31.8 163.8 31.3971 163.8 30.9C163.8 30.4029 163.397 30 162.9 30C162.403 30 162 30.4029 162 30.9C162 31.3971 162.403 31.8 162.9 31.8Z" fill="white"/>
<path d="M168.9 31.8C169.397 31.8 169.8 31.3971 169.8 30.9C169.8 30.4029 169.397 30 168.9 30C168.403 30 168 30.4029 168 30.9C168 31.3971 168.403 31.8 168.9 31.8Z" fill="white"/>
<path d="M174.9 31.8C175.397 31.8 175.8 31.3971 175.8 30.9C175.8 30.4029 175.397 30 174.9 30C174.403 30 174 30.4029 174 30.9C174 31.3971 174.403 31.8 174.9 31.8Z" fill="white"/>
<path d="M180.9 31.8C181.397 31.8 181.8 31.3971 181.8 30.9C181.8 30.4029 181.397 30 180.9 30C180.403 30 180 30.4029 180 30.9C180 31.3971 180.403 31.8 180.9 31.8Z" fill="white"/>
<path d="M186.9 31.8C187.397 31.8 187.8 31.3971 187.8 30.9C187.8 30.4029 187.397 30 186.9 30C186.403 30 186 30.4029 186 30.9C186 31.3971 186.403 31.8 186.9 31.8Z" fill="white"/>
<path d="M192.9 31.8C193.397 31.8 193.8 31.3971 193.8 30.9C193.8 30.4029 193.397 30 192.9 30C192.403 30 192 30.4029 192 30.9C192 31.3971 192.403 31.8 192.9 31.8Z" fill="white"/>
<path d="M198.9 31.8C199.397 31.8 199.8 31.3971 199.8 30.9C199.8 30.4029 199.397 30 198.9 30C198.403 30 198 30.4029 198 30.9C198 31.3971 198.403 31.8 198.9 31.8Z" fill="white"/>
<path d="M204.9 31.8C205.397 31.8 205.8 31.3971 205.8 30.9C205.8 30.4029 205.397 30 204.9 30C204.403 30 204 30.4029 204 30.9C204 31.3971 204.403 31.8 204.9 31.8Z" fill="white"/>
<path d="M210.9 31.8C211.397 31.8 211.8 31.3971 211.8 30.9C211.8 30.4029 211.397 30 210.9 30C210.403 30 210 30.4029 210 30.9C210 31.3971 210.403 31.8 210.9 31.8Z" fill="white"/>
<path d="M216.9 31.8C217.397 31.8 217.8 31.3971 217.8 30.9C217.8 30.4029 217.397 30 216.9 30C216.403 30 216 30.4029 216 30.9C216 31.3971 216.403 31.8 216.9 31.8Z" fill="white"/>
<path d="M222.9 31.8C223.397 31.8 223.8 31.3971 223.8 30.9C223.8 30.4029 223.397 30 222.9 30C222.403 30 222 30.4029 222 30.9C222 31.3971 222.403 31.8 222.9 31.8Z" fill="white"/>
<path d="M228.9 31.8C229.397 31.8 229.8 31.3971 229.8 30.9C229.8 30.4029 229.397 30 228.9 30C228.403 30 228 30.4029 228 30.9C228 31.3971 228.403 31.8 228.9 31.8Z" fill="white"/>
<path d="M234.9 31.8C235.397 31.8 235.8 31.3971 235.8 30.9C235.8 30.4029 235.397 30 234.9 30C234.403 30 234 30.4029 234 30.9C234 31.3971 234.403 31.8 234.9 31.8Z" fill="white"/>
<path d="M0.900009 37.8C1.39707 37.8 1.8 37.3971 1.8 36.9C1.8 36.4029 1.39707 36 0.900009 36C0.402953 36 0 36.4029 0 36.9C0 37.3971 0.402953 37.8 0.900009 37.8Z" fill="white"/>
<path d="M6.90001 37.8C7.39707 37.8 7.8 37.3971 7.8 36.9C7.8 36.4029 7.39707 36 6.90001 36C6.40295 36 6 36.4029 6 36.9C6 37.3971 6.40295 37.8 6.90001 37.8Z" fill="white"/>
<path d="M12.9 37.8C13.3971 37.8 13.8 37.3971 13.8 36.9C13.8 36.4029 13.3971 36 12.9 36C12.403 36 12 36.4029 12 36.9C12 37.3971 12.403 37.8 12.9 37.8Z" fill="white"/>
<path d="M18.9 37.8C19.3971 37.8 19.8 37.3971 19.8 36.9C19.8 36.4029 19.3971 36 18.9 36C18.403 36 18 36.4029 18 36.9C18 37.3971 18.403 37.8 18.9 37.8Z" fill="white"/>
<path d="M24.9 37.8C25.3971 37.8 25.8 37.3971 25.8 36.9C25.8 36.4029 25.3971 36 24.9 36C24.403 36 24 36.4029 24 36.9C24 37.3971 24.403 37.8 24.9 37.8Z" fill="white"/>
<path d="M30.9 37.8C31.3971 37.8 31.8 37.3971 31.8 36.9C31.8 36.4029 31.3971 36 30.9 36C30.403 36 30 36.4029 30 36.9C30 37.3971 30.403 37.8 30.9 37.8Z" fill="white"/>
<path d="M36.9 37.8C37.3971 37.8 37.8 37.3971 37.8 36.9C37.8 36.4029 37.3971 36 36.9 36C36.403 36 36 36.4029 36 36.9C36 37.3971 36.403 37.8 36.9 37.8Z" fill="white"/>
<path d="M42.9 37.8C43.3971 37.8 43.8 37.3971 43.8 36.9C43.8 36.4029 43.3971 36 42.9 36C42.403 36 42 36.4029 42 36.9C42 37.3971 42.403 37.8 42.9 37.8Z" fill="white"/>
<path d="M48.9 37.8C49.3971 37.8 49.8 37.3971 49.8 36.9C49.8 36.4029 49.3971 36 48.9 36C48.403 36 48 36.4029 48 36.9C48 37.3971 48.403 37.8 48.9 37.8Z" fill="white"/>
<path d="M54.9 37.8C55.3971 37.8 55.8 37.3971 55.8 36.9C55.8 36.4029 55.3971 36 54.9 36C54.403 36 54 36.4029 54 36.9C54 37.3971 54.403 37.8 54.9 37.8Z" fill="white"/>
<path d="M60.9 37.8C61.3971 37.8 61.8 37.3971 61.8 36.9C61.8 36.4029 61.3971 36 60.9 36C60.403 36 60 36.4029 60 36.9C60 37.3971 60.403 37.8 60.9 37.8Z" fill="white"/>
<path d="M66.9 37.8C67.3971 37.8 67.8 37.3971 67.8 36.9C67.8 36.4029 67.3971 36 66.9 36C66.403 36 66 36.4029 66 36.9C66 37.3971 66.403 37.8 66.9 37.8Z" fill="white"/>
<path d="M72.9 37.8C73.3971 37.8 73.8 37.3971 73.8 36.9C73.8 36.4029 73.3971 36 72.9 36C72.403 36 72 36.4029 72 36.9C72 37.3971 72.403 37.8 72.9 37.8Z" fill="white"/>
<path d="M78.9 37.8C79.3971 37.8 79.8 37.3971 79.8 36.9C79.8 36.4029 79.3971 36 78.9 36C78.403 36 78 36.4029 78 36.9C78 37.3971 78.403 37.8 78.9 37.8Z" fill="white"/>
<path d="M84.9 37.8C85.3971 37.8 85.8 37.3971 85.8 36.9C85.8 36.4029 85.3971 36 84.9 36C84.403 36 84 36.4029 84 36.9C84 37.3971 84.403 37.8 84.9 37.8Z" fill="white"/>
<path d="M90.9 37.8C91.3971 37.8 91.8 37.3971 91.8 36.9C91.8 36.4029 91.3971 36 90.9 36C90.403 36 90 36.4029 90 36.9C90 37.3971 90.403 37.8 90.9 37.8Z" fill="white"/>
<path d="M96.9 37.8C97.3971 37.8 97.8 37.3971 97.8 36.9C97.8 36.4029 97.3971 36 96.9 36C96.403 36 96 36.4029 96 36.9C96 37.3971 96.403 37.8 96.9 37.8Z" fill="white"/>
<path d="M102.9 37.8C103.397 37.8 103.8 37.3971 103.8 36.9C103.8 36.4029 103.397 36 102.9 36C102.403 36 102 36.4029 102 36.9C102 37.3971 102.403 37.8 102.9 37.8Z" fill="white"/>
<path d="M108.9 37.8C109.397 37.8 109.8 37.3971 109.8 36.9C109.8 36.4029 109.397 36 108.9 36C108.403 36 108 36.4029 108 36.9C108 37.3971 108.403 37.8 108.9 37.8Z" fill="white"/>
<path d="M114.9 37.8C115.397 37.8 115.8 37.3971 115.8 36.9C115.8 36.4029 115.397 36 114.9 36C114.403 36 114 36.4029 114 36.9C114 37.3971 114.403 37.8 114.9 37.8Z" fill="white"/>
<path d="M120.9 37.8C121.397 37.8 121.8 37.3971 121.8 36.9C121.8 36.4029 121.397 36 120.9 36C120.403 36 120 36.4029 120 36.9C120 37.3971 120.403 37.8 120.9 37.8Z" fill="white"/>
<path d="M126.9 37.8C127.397 37.8 127.8 37.3971 127.8 36.9C127.8 36.4029 127.397 36 126.9 36C126.403 36 126 36.4029 126 36.9C126 37.3971 126.403 37.8 126.9 37.8Z" fill="white"/>
<path d="M132.9 37.8C133.397 37.8 133.8 37.3971 133.8 36.9C133.8 36.4029 133.397 36 132.9 36C132.403 36 132 36.4029 132 36.9C132 37.3971 132.403 37.8 132.9 37.8Z" fill="white"/>
<path d="M138.9 37.8C139.397 37.8 139.8 37.3971 139.8 36.9C139.8 36.4029 139.397 36 138.9 36C138.403 36 138 36.4029 138 36.9C138 37.3971 138.403 37.8 138.9 37.8Z" fill="white"/>
<path d="M144.9 37.8C145.397 37.8 145.8 37.3971 145.8 36.9C145.8 36.4029 145.397 36 144.9 36C144.403 36 144 36.4029 144 36.9C144 37.3971 144.403 37.8 144.9 37.8Z" fill="white"/>
<path d="M150.9 37.8C151.397 37.8 151.8 37.3971 151.8 36.9C151.8 36.4029 151.397 36 150.9 36C150.403 36 150 36.4029 150 36.9C150 37.3971 150.403 37.8 150.9 37.8Z" fill="white"/>
<path d="M156.9 37.8C157.397 37.8 157.8 37.3971 157.8 36.9C157.8 36.4029 157.397 36 156.9 36C156.403 36 156 36.4029 156 36.9C156 37.3971 156.403 37.8 156.9 37.8Z" fill="white"/>
<path d="M162.9 37.8C163.397 37.8 163.8 37.3971 163.8 36.9C163.8 36.4029 163.397 36 162.9 36C162.403 36 162 36.4029 162 36.9C162 37.3971 162.403 37.8 162.9 37.8Z" fill="white"/>
<path d="M168.9 37.8C169.397 37.8 169.8 37.3971 169.8 36.9C169.8 36.4029 169.397 36 168.9 36C168.403 36 168 36.4029 168 36.9C168 37.3971 168.403 37.8 168.9 37.8Z" fill="white"/>
<path d="M174.9 37.8C175.397 37.8 175.8 37.3971 175.8 36.9C175.8 36.4029 175.397 36 174.9 36C174.403 36 174 36.4029 174 36.9C174 37.3971 174.403 37.8 174.9 37.8Z" fill="white"/>
<path d="M180.9 37.8C181.397 37.8 181.8 37.3971 181.8 36.9C181.8 36.4029 181.397 36 180.9 36C180.403 36 180 36.4029 180 36.9C180 37.3971 180.403 37.8 180.9 37.8Z" fill="white"/>
<path d="M186.9 37.8C187.397 37.8 187.8 37.3971 187.8 36.9C187.8 36.4029 187.397 36 186.9 36C186.403 36 186 36.4029 186 36.9C186 37.3971 186.403 37.8 186.9 37.8Z" fill="white"/>
<path d="M192.9 37.8C193.397 37.8 193.8 37.3971 193.8 36.9C193.8 36.4029 193.397 36 192.9 36C192.403 36 192 36.4029 192 36.9C192 37.3971 192.403 37.8 192.9 37.8Z" fill="white"/>
<path d="M198.9 37.8C199.397 37.8 199.8 37.3971 199.8 36.9C199.8 36.4029 199.397 36 198.9 36C198.403 36 198 36.4029 198 36.9C198 37.3971 198.403 37.8 198.9 37.8Z" fill="white"/>
<path d="M204.9 37.8C205.397 37.8 205.8 37.3971 205.8 36.9C205.8 36.4029 205.397 36 204.9 36C204.403 36 204 36.4029 204 36.9C204 37.3971 204.403 37.8 204.9 37.8Z" fill="white"/>
<path d="M210.9 37.8C211.397 37.8 211.8 37.3971 211.8 36.9C211.8 36.4029 211.397 36 210.9 36C210.403 36 210 36.4029 210 36.9C210 37.3971 210.403 37.8 210.9 37.8Z" fill="white"/>
<path d="M216.9 37.8C217.397 37.8 217.8 37.3971 217.8 36.9C217.8 36.4029 217.397 36 216.9 36C216.403 36 216 36.4029 216 36.9C216 37.3971 216.403 37.8 216.9 37.8Z" fill="white"/>
<path d="M222.9 37.8C223.397 37.8 223.8 37.3971 223.8 36.9C223.8 36.4029 223.397 36 222.9 36C222.403 36 222 36.4029 222 36.9C222 37.3971 222.403 37.8 222.9 37.8Z" fill="white"/>
<path d="M228.9 37.8C229.397 37.8 229.8 37.3971 229.8 36.9C229.8 36.4029 229.397 36 228.9 36C228.403 36 228 36.4029 228 36.9C228 37.3971 228.403 37.8 228.9 37.8Z" fill="white"/>
<path d="M234.9 37.8C235.397 37.8 235.8 37.3971 235.8 36.9C235.8 36.4029 235.397 36 234.9 36C234.403 36 234 36.4029 234 36.9C234 37.3971 234.403 37.8 234.9 37.8Z" fill="white"/>
</svg>
