<svg width="254" height="20" viewBox="0 0 254 20" fill="none" xmlns="http://www.w3.org/2000/svg">
<path d="M0.9 1.8C1.4 1.8 1.8 1.40001 1.8 0.900009C1.8 0.400009 1.4 0 0.9 0C0.4 0 0 0.400009 0 0.900009C0 1.40001 0.4 1.8 0.9 1.8Z" fill="white"/>
<path d="M6.9 1.8C7.4 1.8 7.8 1.40001 7.8 0.900009C7.8 0.400009 7.4 0 6.9 0C6.4 0 6 0.400009 6 0.900009C6 1.40001 6.4 1.8 6.9 1.8Z" fill="white"/>
<path d="M12.9 1.8C13.4 1.8 13.8 1.40001 13.8 0.900009C13.8 0.400009 13.4 0 12.9 0C12.4 0 12 0.400009 12 0.900009C12 1.40001 12.4 1.8 12.9 1.8Z" fill="white"/>
<path d="M18.9 1.8C19.4 1.8 19.8 1.40001 19.8 0.900009C19.8 0.400009 19.4 0 18.9 0C18.4 0 18 0.400009 18 0.900009C18 1.40001 18.4 1.8 18.9 1.8Z" fill="white"/>
<path d="M24.9 1.8C25.4 1.8 25.8 1.40001 25.8 0.900009C25.8 0.400009 25.4 0 24.9 0C24.4 0 24 0.400009 24 0.900009C24 1.40001 24.4 1.8 24.9 1.8Z" fill="white"/>
<path d="M30.9 1.8C31.4 1.8 31.8 1.40001 31.8 0.900009C31.8 0.400009 31.4 0 30.9 0C30.4 0 30 0.400009 30 0.900009C30 1.40001 30.4 1.8 30.9 1.8Z" fill="white"/>
<path d="M36.9 1.8C37.4 1.8 37.8 1.40001 37.8 0.900009C37.8 0.400009 37.4 0 36.9 0C36.4 0 36 0.400009 36 0.900009C36 1.40001 36.4 1.8 36.9 1.8Z" fill="white"/>
<path d="M42.9 1.8C43.4 1.8 43.8 1.40001 43.8 0.900009C43.8 0.400009 43.4 0 42.9 0C42.4 0 42 0.400009 42 0.900009C42 1.40001 42.4 1.8 42.9 1.8Z" fill="white"/>
<path d="M48.9 1.8C49.4 1.8 49.8 1.40001 49.8 0.900009C49.8 0.400009 49.4 0 48.9 0C48.4 0 48 0.400009 48 0.900009C48 1.40001 48.4 1.8 48.9 1.8Z" fill="white"/>
<path d="M54.9 1.8C55.4 1.8 55.8 1.40001 55.8 0.900009C55.8 0.400009 55.4 0 54.9 0C54.4 0 54 0.400009 54 0.900009C54 1.40001 54.4 1.8 54.9 1.8Z" fill="white"/>
<path d="M60.9 1.8C61.4 1.8 61.8 1.40001 61.8 0.900009C61.8 0.400009 61.4 0 60.9 0C60.4 0 60 0.400009 60 0.900009C60 1.40001 60.4 1.8 60.9 1.8Z" fill="white"/>
<path d="M66.9 1.8C67.4 1.8 67.8 1.40001 67.8 0.900009C67.8 0.400009 67.4 0 66.9 0C66.4 0 66 0.400009 66 0.900009C66 1.40001 66.4 1.8 66.9 1.8Z" fill="white"/>
<path d="M72.9 1.8C73.4 1.8 73.8 1.40001 73.8 0.900009C73.8 0.400009 73.4 0 72.9 0C72.4 0 72 0.400009 72 0.900009C72 1.40001 72.4 1.8 72.9 1.8Z" fill="white"/>
<path d="M78.9 1.8C79.4 1.8 79.8 1.40001 79.8 0.900009C79.8 0.400009 79.4 0 78.9 0C78.4 0 78 0.400009 78 0.900009C78 1.40001 78.4 1.8 78.9 1.8Z" fill="white"/>
<path d="M84.9 1.8C85.4 1.8 85.8 1.40001 85.8 0.900009C85.8 0.400009 85.4 0 84.9 0C84.4 0 84 0.400009 84 0.900009C84 1.40001 84.4 1.8 84.9 1.8Z" fill="white"/>
<path d="M90.9 1.8C91.4 1.8 91.8 1.40001 91.8 0.900009C91.8 0.400009 91.4 0 90.9 0C90.4 0 90 0.400009 90 0.900009C90 1.40001 90.4 1.8 90.9 1.8Z" fill="white"/>
<path d="M96.9 1.8C97.4 1.8 97.8 1.40001 97.8 0.900009C97.8 0.400009 97.4 0 96.9 0C96.4 0 96 0.400009 96 0.900009C96 1.40001 96.4 1.8 96.9 1.8Z" fill="white"/>
<path d="M102.9 1.8C103.4 1.8 103.8 1.40001 103.8 0.900009C103.8 0.400009 103.4 0 102.9 0C102.4 0 102 0.400009 102 0.900009C102 1.40001 102.4 1.8 102.9 1.8Z" fill="white"/>
<path d="M108.9 1.8C109.4 1.8 109.8 1.40001 109.8 0.900009C109.8 0.400009 109.4 0 108.9 0C108.4 0 108 0.400009 108 0.900009C108 1.40001 108.4 1.8 108.9 1.8Z" fill="white"/>
<path d="M114.9 1.8C115.4 1.8 115.8 1.40001 115.8 0.900009C115.8 0.400009 115.4 0 114.9 0C114.4 0 114 0.400009 114 0.900009C114 1.40001 114.4 1.8 114.9 1.8Z" fill="white"/>
<path d="M120.9 1.8C121.4 1.8 121.8 1.40001 121.8 0.900009C121.8 0.400009 121.4 0 120.9 0C120.4 0 120 0.400009 120 0.900009C120 1.40001 120.4 1.8 120.9 1.8Z" fill="white"/>
<path d="M126.9 1.8C127.4 1.8 127.8 1.40001 127.8 0.900009C127.8 0.400009 127.4 0 126.9 0C126.4 0 126 0.400009 126 0.900009C126 1.40001 126.4 1.8 126.9 1.8Z" fill="white"/>
<path d="M132.9 1.8C133.4 1.8 133.8 1.40001 133.8 0.900009C133.8 0.400009 133.4 0 132.9 0C132.4 0 132 0.400009 132 0.900009C132 1.40001 132.4 1.8 132.9 1.8Z" fill="white"/>
<path d="M138.9 1.8C139.4 1.8 139.8 1.40001 139.8 0.900009C139.8 0.400009 139.4 0 138.9 0C138.4 0 138 0.400009 138 0.900009C138 1.40001 138.4 1.8 138.9 1.8Z" fill="white"/>
<path d="M144.9 1.8C145.4 1.8 145.8 1.40001 145.8 0.900009C145.8 0.400009 145.4 0 144.9 0C144.4 0 144 0.400009 144 0.900009C144 1.40001 144.4 1.8 144.9 1.8Z" fill="white"/>
<path d="M150.9 1.8C151.4 1.8 151.8 1.40001 151.8 0.900009C151.8 0.400009 151.4 0 150.9 0C150.4 0 150 0.400009 150 0.900009C150 1.40001 150.4 1.8 150.9 1.8Z" fill="white"/>
<path d="M156.9 1.8C157.4 1.8 157.8 1.40001 157.8 0.900009C157.8 0.400009 157.4 0 156.9 0C156.4 0 156 0.400009 156 0.900009C156 1.40001 156.4 1.8 156.9 1.8Z" fill="white"/>
<path d="M162.9 1.8C163.4 1.8 163.8 1.40001 163.8 0.900009C163.8 0.400009 163.4 0 162.9 0C162.4 0 162 0.400009 162 0.900009C162 1.40001 162.4 1.8 162.9 1.8Z" fill="white"/>
<path d="M168.9 1.8C169.4 1.8 169.8 1.40001 169.8 0.900009C169.8 0.400009 169.4 0 168.9 0C168.4 0 168 0.400009 168 0.900009C168 1.40001 168.4 1.8 168.9 1.8Z" fill="white"/>
<path d="M174.9 1.8C175.4 1.8 175.8 1.40001 175.8 0.900009C175.8 0.400009 175.4 0 174.9 0C174.4 0 174 0.400009 174 0.900009C174 1.40001 174.4 1.8 174.9 1.8Z" fill="white"/>
<path d="M180.9 1.8C181.4 1.8 181.8 1.40001 181.8 0.900009C181.8 0.400009 181.4 0 180.9 0C180.4 0 180 0.400009 180 0.900009C180 1.40001 180.4 1.8 180.9 1.8Z" fill="white"/>
<path d="M186.9 1.8C187.4 1.8 187.8 1.40001 187.8 0.900009C187.8 0.400009 187.4 0 186.9 0C186.4 0 186 0.400009 186 0.900009C186 1.40001 186.4 1.8 186.9 1.8Z" fill="white"/>
<path d="M192.9 1.8C193.4 1.8 193.8 1.40001 193.8 0.900009C193.8 0.400009 193.4 0 192.9 0C192.4 0 192 0.400009 192 0.900009C192 1.40001 192.4 1.8 192.9 1.8Z" fill="white"/>
<path d="M198.9 1.8C199.4 1.8 199.8 1.40001 199.8 0.900009C199.8 0.400009 199.4 0 198.9 0C198.4 0 198 0.400009 198 0.900009C198 1.40001 198.4 1.8 198.9 1.8Z" fill="white"/>
<path d="M204.9 1.8C205.4 1.8 205.8 1.40001 205.8 0.900009C205.8 0.400009 205.4 0 204.9 0C204.4 0 204 0.400009 204 0.900009C204 1.40001 204.4 1.8 204.9 1.8Z" fill="white"/>
<path d="M210.9 1.8C211.4 1.8 211.8 1.40001 211.8 0.900009C211.8 0.400009 211.4 0 210.9 0C210.4 0 210 0.400009 210 0.900009C210 1.40001 210.4 1.8 210.9 1.8Z" fill="white"/>
<path d="M216.9 1.8C217.4 1.8 217.8 1.40001 217.8 0.900009C217.8 0.400009 217.4 0 216.9 0C216.4 0 216 0.400009 216 0.900009C216 1.40001 216.4 1.8 216.9 1.8Z" fill="white"/>
<path d="M222.9 1.8C223.4 1.8 223.8 1.40001 223.8 0.900009C223.8 0.400009 223.4 0 222.9 0C222.4 0 222 0.400009 222 0.900009C222 1.40001 222.4 1.8 222.9 1.8Z" fill="white"/>
<path d="M228.9 1.8C229.4 1.8 229.8 1.40001 229.8 0.900009C229.8 0.400009 229.4 0 228.9 0C228.4 0 228 0.400009 228 0.900009C228 1.40001 228.4 1.8 228.9 1.8Z" fill="white"/>
<path d="M234.9 1.8C235.4 1.8 235.8 1.40001 235.8 0.900009C235.8 0.400009 235.4 0 234.9 0C234.4 0 234 0.400009 234 0.900009C234 1.40001 234.4 1.8 234.9 1.8Z" fill="white"/>
<path d="M240.9 1.8C241.4 1.8 241.8 1.40001 241.8 0.900009C241.8 0.400009 241.4 0 240.9 0C240.4 0 240 0.400009 240 0.900009C240 1.40001 240.4 1.8 240.9 1.8Z" fill="white"/>
<path d="M246.9 1.8C247.4 1.8 247.8 1.40001 247.8 0.900009C247.8 0.400009 247.4 0 246.9 0C246.4 0 246 0.400009 246 0.900009C246 1.40001 246.4 1.8 246.9 1.8Z" fill="white"/>
<path d="M252.9 1.8C253.4 1.8 253.8 1.40001 253.8 0.900009C253.8 0.400009 253.4 0 252.9 0C252.4 0 252 0.400009 252 0.900009C252 1.40001 252.4 1.8 252.9 1.8Z" fill="white"/>
<path d="M0.9 7.8C1.4 7.8 1.8 7.40001 1.8 6.90001C1.8 6.40001 1.4 6 0.9 6C0.4 6 0 6.40001 0 6.90001C0 7.40001 0.4 7.8 0.9 7.8Z" fill="white"/>
<path d="M6.9 7.8C7.4 7.8 7.8 7.40001 7.8 6.90001C7.8 6.40001 7.4 6 6.9 6C6.4 6 6 6.40001 6 6.90001C6 7.40001 6.4 7.8 6.9 7.8Z" fill="white"/>
<path d="M12.9 7.8C13.4 7.8 13.8 7.40001 13.8 6.90001C13.8 6.40001 13.4 6 12.9 6C12.4 6 12 6.40001 12 6.90001C12 7.40001 12.4 7.8 12.9 7.8Z" fill="white"/>
<path d="M18.9 7.8C19.4 7.8 19.8 7.40001 19.8 6.90001C19.8 6.40001 19.4 6 18.9 6C18.4 6 18 6.40001 18 6.90001C18 7.40001 18.4 7.8 18.9 7.8Z" fill="white"/>
<path d="M24.9 7.8C25.4 7.8 25.8 7.40001 25.8 6.90001C25.8 6.40001 25.4 6 24.9 6C24.4 6 24 6.40001 24 6.90001C24 7.40001 24.4 7.8 24.9 7.8Z" fill="white"/>
<path d="M30.9 7.8C31.4 7.8 31.8 7.40001 31.8 6.90001C31.8 6.40001 31.4 6 30.9 6C30.4 6 30 6.40001 30 6.90001C30 7.40001 30.4 7.8 30.9 7.8Z" fill="white"/>
<path d="M36.9 7.8C37.4 7.8 37.8 7.40001 37.8 6.90001C37.8 6.40001 37.4 6 36.9 6C36.4 6 36 6.40001 36 6.90001C36 7.40001 36.4 7.8 36.9 7.8Z" fill="white"/>
<path d="M42.9 7.8C43.4 7.8 43.8 7.40001 43.8 6.90001C43.8 6.40001 43.4 6 42.9 6C42.4 6 42 6.40001 42 6.90001C42 7.40001 42.4 7.8 42.9 7.8Z" fill="white"/>
<path d="M48.9 7.8C49.4 7.8 49.8 7.40001 49.8 6.90001C49.8 6.40001 49.4 6 48.9 6C48.4 6 48 6.40001 48 6.90001C48 7.40001 48.4 7.8 48.9 7.8Z" fill="white"/>
<path d="M54.9 7.8C55.4 7.8 55.8 7.40001 55.8 6.90001C55.8 6.40001 55.4 6 54.9 6C54.4 6 54 6.40001 54 6.90001C54 7.40001 54.4 7.8 54.9 7.8Z" fill="white"/>
<path d="M60.9 7.8C61.4 7.8 61.8 7.40001 61.8 6.90001C61.8 6.40001 61.4 6 60.9 6C60.4 6 60 6.40001 60 6.90001C60 7.40001 60.4 7.8 60.9 7.8Z" fill="white"/>
<path d="M66.9 7.8C67.4 7.8 67.8 7.40001 67.8 6.90001C67.8 6.40001 67.4 6 66.9 6C66.4 6 66 6.40001 66 6.90001C66 7.40001 66.4 7.8 66.9 7.8Z" fill="white"/>
<path d="M72.9 7.8C73.4 7.8 73.8 7.40001 73.8 6.90001C73.8 6.40001 73.4 6 72.9 6C72.4 6 72 6.40001 72 6.90001C72 7.40001 72.4 7.8 72.9 7.8Z" fill="white"/>
<path d="M78.9 7.8C79.4 7.8 79.8 7.40001 79.8 6.90001C79.8 6.40001 79.4 6 78.9 6C78.4 6 78 6.40001 78 6.90001C78 7.40001 78.4 7.8 78.9 7.8Z" fill="white"/>
<path d="M84.9 7.8C85.4 7.8 85.8 7.40001 85.8 6.90001C85.8 6.40001 85.4 6 84.9 6C84.4 6 84 6.40001 84 6.90001C84 7.40001 84.4 7.8 84.9 7.8Z" fill="white"/>
<path d="M90.9 7.8C91.4 7.8 91.8 7.40001 91.8 6.90001C91.8 6.40001 91.4 6 90.9 6C90.4 6 90 6.40001 90 6.90001C90 7.40001 90.4 7.8 90.9 7.8Z" fill="white"/>
<path d="M96.9 7.8C97.4 7.8 97.8 7.40001 97.8 6.90001C97.8 6.40001 97.4 6 96.9 6C96.4 6 96 6.40001 96 6.90001C96 7.40001 96.4 7.8 96.9 7.8Z" fill="white"/>
<path d="M102.9 7.8C103.4 7.8 103.8 7.40001 103.8 6.90001C103.8 6.40001 103.4 6 102.9 6C102.4 6 102 6.40001 102 6.90001C102 7.40001 102.4 7.8 102.9 7.8Z" fill="white"/>
<path d="M108.9 7.8C109.4 7.8 109.8 7.40001 109.8 6.90001C109.8 6.40001 109.4 6 108.9 6C108.4 6 108 6.40001 108 6.90001C108 7.40001 108.4 7.8 108.9 7.8Z" fill="white"/>
<path d="M114.9 7.8C115.4 7.8 115.8 7.40001 115.8 6.90001C115.8 6.40001 115.4 6 114.9 6C114.4 6 114 6.40001 114 6.90001C114 7.40001 114.4 7.8 114.9 7.8Z" fill="white"/>
<path d="M120.9 7.8C121.4 7.8 121.8 7.40001 121.8 6.90001C121.8 6.40001 121.4 6 120.9 6C120.4 6 120 6.40001 120 6.90001C120 7.40001 120.4 7.8 120.9 7.8Z" fill="white"/>
<path d="M126.9 7.8C127.4 7.8 127.8 7.40001 127.8 6.90001C127.8 6.40001 127.4 6 126.9 6C126.4 6 126 6.40001 126 6.90001C126 7.40001 126.4 7.8 126.9 7.8Z" fill="white"/>
<path d="M132.9 7.8C133.4 7.8 133.8 7.40001 133.8 6.90001C133.8 6.40001 133.4 6 132.9 6C132.4 6 132 6.40001 132 6.90001C132 7.40001 132.4 7.8 132.9 7.8Z" fill="white"/>
<path d="M138.9 7.8C139.4 7.8 139.8 7.40001 139.8 6.90001C139.8 6.40001 139.4 6 138.9 6C138.4 6 138 6.40001 138 6.90001C138 7.40001 138.4 7.8 138.9 7.8Z" fill="white"/>
<path d="M144.9 7.8C145.4 7.8 145.8 7.40001 145.8 6.90001C145.8 6.40001 145.4 6 144.9 6C144.4 6 144 6.40001 144 6.90001C144 7.40001 144.4 7.8 144.9 7.8Z" fill="white"/>
<path d="M150.9 7.8C151.4 7.8 151.8 7.40001 151.8 6.90001C151.8 6.40001 151.4 6 150.9 6C150.4 6 150 6.40001 150 6.90001C150 7.40001 150.4 7.8 150.9 7.8Z" fill="white"/>
<path d="M156.9 7.8C157.4 7.8 157.8 7.40001 157.8 6.90001C157.8 6.40001 157.4 6 156.9 6C156.4 6 156 6.40001 156 6.90001C156 7.40001 156.4 7.8 156.9 7.8Z" fill="white"/>
<path d="M162.9 7.8C163.4 7.8 163.8 7.40001 163.8 6.90001C163.8 6.40001 163.4 6 162.9 6C162.4 6 162 6.40001 162 6.90001C162 7.40001 162.4 7.8 162.9 7.8Z" fill="white"/>
<path d="M168.9 7.8C169.4 7.8 169.8 7.40001 169.8 6.90001C169.8 6.40001 169.4 6 168.9 6C168.4 6 168 6.40001 168 6.90001C168 7.40001 168.4 7.8 168.9 7.8Z" fill="white"/>
<path d="M174.9 7.8C175.4 7.8 175.8 7.40001 175.8 6.90001C175.8 6.40001 175.4 6 174.9 6C174.4 6 174 6.40001 174 6.90001C174 7.40001 174.4 7.8 174.9 7.8Z" fill="white"/>
<path d="M180.9 7.8C181.4 7.8 181.8 7.40001 181.8 6.90001C181.8 6.40001 181.4 6 180.9 6C180.4 6 180 6.40001 180 6.90001C180 7.40001 180.4 7.8 180.9 7.8Z" fill="white"/>
<path d="M186.9 7.8C187.4 7.8 187.8 7.40001 187.8 6.90001C187.8 6.40001 187.4 6 186.9 6C186.4 6 186 6.40001 186 6.90001C186 7.40001 186.4 7.8 186.9 7.8Z" fill="white"/>
<path d="M192.9 7.8C193.4 7.8 193.8 7.40001 193.8 6.90001C193.8 6.40001 193.4 6 192.9 6C192.4 6 192 6.40001 192 6.90001C192 7.40001 192.4 7.8 192.9 7.8Z" fill="white"/>
<path d="M198.9 7.8C199.4 7.8 199.8 7.40001 199.8 6.90001C199.8 6.40001 199.4 6 198.9 6C198.4 6 198 6.40001 198 6.90001C198 7.40001 198.4 7.8 198.9 7.8Z" fill="white"/>
<path d="M204.9 7.8C205.4 7.8 205.8 7.40001 205.8 6.90001C205.8 6.40001 205.4 6 204.9 6C204.4 6 204 6.40001 204 6.90001C204 7.40001 204.4 7.8 204.9 7.8Z" fill="white"/>
<path d="M210.9 7.8C211.4 7.8 211.8 7.40001 211.8 6.90001C211.8 6.40001 211.4 6 210.9 6C210.4 6 210 6.40001 210 6.90001C210 7.40001 210.4 7.8 210.9 7.8Z" fill="white"/>
<path d="M216.9 7.8C217.4 7.8 217.8 7.40001 217.8 6.90001C217.8 6.40001 217.4 6 216.9 6C216.4 6 216 6.40001 216 6.90001C216 7.40001 216.4 7.8 216.9 7.8Z" fill="white"/>
<path d="M222.9 7.8C223.4 7.8 223.8 7.40001 223.8 6.90001C223.8 6.40001 223.4 6 222.9 6C222.4 6 222 6.40001 222 6.90001C222 7.40001 222.4 7.8 222.9 7.8Z" fill="white"/>
<path d="M228.9 7.8C229.4 7.8 229.8 7.40001 229.8 6.90001C229.8 6.40001 229.4 6 228.9 6C228.4 6 228 6.40001 228 6.90001C228 7.40001 228.4 7.8 228.9 7.8Z" fill="white"/>
<path d="M234.9 7.8C235.4 7.8 235.8 7.40001 235.8 6.90001C235.8 6.40001 235.4 6 234.9 6C234.4 6 234 6.40001 234 6.90001C234 7.40001 234.4 7.8 234.9 7.8Z" fill="white"/>
<path d="M240.9 7.8C241.4 7.8 241.8 7.40001 241.8 6.90001C241.8 6.40001 241.4 6 240.9 6C240.4 6 240 6.40001 240 6.90001C240 7.40001 240.4 7.8 240.9 7.8Z" fill="white"/>
<path d="M246.9 7.8C247.4 7.8 247.8 7.40001 247.8 6.90001C247.8 6.40001 247.4 6 246.9 6C246.4 6 246 6.40001 246 6.90001C246 7.40001 246.4 7.8 246.9 7.8Z" fill="white"/>
<path d="M252.9 7.8C253.4 7.8 253.8 7.40001 253.8 6.90001C253.8 6.40001 253.4 6 252.9 6C252.4 6 252 6.40001 252 6.90001C252 7.40001 252.4 7.8 252.9 7.8Z" fill="white"/>
<path d="M0.9 13.8C1.4 13.8 1.8 13.4 1.8 12.9C1.8 12.4 1.4 12 0.9 12C0.4 12 0 12.4 0 12.9C0 13.4 0.4 13.8 0.9 13.8Z" fill="white"/>
<path d="M6.9 13.8C7.4 13.8 7.8 13.4 7.8 12.9C7.8 12.4 7.4 12 6.9 12C6.4 12 6 12.4 6 12.9C6 13.4 6.4 13.8 6.9 13.8Z" fill="white"/>
<path d="M12.9 13.8C13.4 13.8 13.8 13.4 13.8 12.9C13.8 12.4 13.4 12 12.9 12C12.4 12 12 12.4 12 12.9C12 13.4 12.4 13.8 12.9 13.8Z" fill="white"/>
<path d="M18.9 13.8C19.4 13.8 19.8 13.4 19.8 12.9C19.8 12.4 19.4 12 18.9 12C18.4 12 18 12.4 18 12.9C18 13.4 18.4 13.8 18.9 13.8Z" fill="white"/>
<path d="M24.9 13.8C25.4 13.8 25.8 13.4 25.8 12.9C25.8 12.4 25.4 12 24.9 12C24.4 12 24 12.4 24 12.9C24 13.4 24.4 13.8 24.9 13.8Z" fill="white"/>
<path d="M30.9 13.8C31.4 13.8 31.8 13.4 31.8 12.9C31.8 12.4 31.4 12 30.9 12C30.4 12 30 12.4 30 12.9C30 13.4 30.4 13.8 30.9 13.8Z" fill="white"/>
<path d="M36.9 13.8C37.4 13.8 37.8 13.4 37.8 12.9C37.8 12.4 37.4 12 36.9 12C36.4 12 36 12.4 36 12.9C36 13.4 36.4 13.8 36.9 13.8Z" fill="white"/>
<path d="M42.9 13.8C43.4 13.8 43.8 13.4 43.8 12.9C43.8 12.4 43.4 12 42.9 12C42.4 12 42 12.4 42 12.9C42 13.4 42.4 13.8 42.9 13.8Z" fill="white"/>
<path d="M48.9 13.8C49.4 13.8 49.8 13.4 49.8 12.9C49.8 12.4 49.4 12 48.9 12C48.4 12 48 12.4 48 12.9C48 13.4 48.4 13.8 48.9 13.8Z" fill="white"/>
<path d="M54.9 13.8C55.4 13.8 55.8 13.4 55.8 12.9C55.8 12.4 55.4 12 54.9 12C54.4 12 54 12.4 54 12.9C54 13.4 54.4 13.8 54.9 13.8Z" fill="white"/>
<path d="M60.9 13.8C61.4 13.8 61.8 13.4 61.8 12.9C61.8 12.4 61.4 12 60.9 12C60.4 12 60 12.4 60 12.9C60 13.4 60.4 13.8 60.9 13.8Z" fill="white"/>
<path d="M66.9 13.8C67.4 13.8 67.8 13.4 67.8 12.9C67.8 12.4 67.4 12 66.9 12C66.4 12 66 12.4 66 12.9C66 13.4 66.4 13.8 66.9 13.8Z" fill="white"/>
<path d="M72.9 13.8C73.4 13.8 73.8 13.4 73.8 12.9C73.8 12.4 73.4 12 72.9 12C72.4 12 72 12.4 72 12.9C72 13.4 72.4 13.8 72.9 13.8Z" fill="white"/>
<path d="M78.9 13.8C79.4 13.8 79.8 13.4 79.8 12.9C79.8 12.4 79.4 12 78.9 12C78.4 12 78 12.4 78 12.9C78 13.4 78.4 13.8 78.9 13.8Z" fill="white"/>
<path d="M84.9 13.8C85.4 13.8 85.8 13.4 85.8 12.9C85.8 12.4 85.4 12 84.9 12C84.4 12 84 12.4 84 12.9C84 13.4 84.4 13.8 84.9 13.8Z" fill="white"/>
<path d="M90.9 13.8C91.4 13.8 91.8 13.4 91.8 12.9C91.8 12.4 91.4 12 90.9 12C90.4 12 90 12.4 90 12.9C90 13.4 90.4 13.8 90.9 13.8Z" fill="white"/>
<path d="M96.9 13.8C97.4 13.8 97.8 13.4 97.8 12.9C97.8 12.4 97.4 12 96.9 12C96.4 12 96 12.4 96 12.9C96 13.4 96.4 13.8 96.9 13.8Z" fill="white"/>
<path d="M102.9 13.8C103.4 13.8 103.8 13.4 103.8 12.9C103.8 12.4 103.4 12 102.9 12C102.4 12 102 12.4 102 12.9C102 13.4 102.4 13.8 102.9 13.8Z" fill="white"/>
<path d="M108.9 13.8C109.4 13.8 109.8 13.4 109.8 12.9C109.8 12.4 109.4 12 108.9 12C108.4 12 108 12.4 108 12.9C108 13.4 108.4 13.8 108.9 13.8Z" fill="white"/>
<path d="M114.9 13.8C115.4 13.8 115.8 13.4 115.8 12.9C115.8 12.4 115.4 12 114.9 12C114.4 12 114 12.4 114 12.9C114 13.4 114.4 13.8 114.9 13.8Z" fill="white"/>
<path d="M120.9 13.8C121.4 13.8 121.8 13.4 121.8 12.9C121.8 12.4 121.4 12 120.9 12C120.4 12 120 12.4 120 12.9C120 13.4 120.4 13.8 120.9 13.8Z" fill="white"/>
<path d="M126.9 13.8C127.4 13.8 127.8 13.4 127.8 12.9C127.8 12.4 127.4 12 126.9 12C126.4 12 126 12.4 126 12.9C126 13.4 126.4 13.8 126.9 13.8Z" fill="white"/>
<path d="M132.9 13.8C133.4 13.8 133.8 13.4 133.8 12.9C133.8 12.4 133.4 12 132.9 12C132.4 12 132 12.4 132 12.9C132 13.4 132.4 13.8 132.9 13.8Z" fill="white"/>
<path d="M138.9 13.8C139.4 13.8 139.8 13.4 139.8 12.9C139.8 12.4 139.4 12 138.9 12C138.4 12 138 12.4 138 12.9C138 13.4 138.4 13.8 138.9 13.8Z" fill="white"/>
<path d="M144.9 13.8C145.4 13.8 145.8 13.4 145.8 12.9C145.8 12.4 145.4 12 144.9 12C144.4 12 144 12.4 144 12.9C144 13.4 144.4 13.8 144.9 13.8Z" fill="white"/>
<path d="M150.9 13.8C151.4 13.8 151.8 13.4 151.8 12.9C151.8 12.4 151.4 12 150.9 12C150.4 12 150 12.4 150 12.9C150 13.4 150.4 13.8 150.9 13.8Z" fill="white"/>
<path d="M156.9 13.8C157.4 13.8 157.8 13.4 157.8 12.9C157.8 12.4 157.4 12 156.9 12C156.4 12 156 12.4 156 12.9C156 13.4 156.4 13.8 156.9 13.8Z" fill="white"/>
<path d="M162.9 13.8C163.4 13.8 163.8 13.4 163.8 12.9C163.8 12.4 163.4 12 162.9 12C162.4 12 162 12.4 162 12.9C162 13.4 162.4 13.8 162.9 13.8Z" fill="white"/>
<path d="M168.9 13.8C169.4 13.8 169.8 13.4 169.8 12.9C169.8 12.4 169.4 12 168.9 12C168.4 12 168 12.4 168 12.9C168 13.4 168.4 13.8 168.9 13.8Z" fill="white"/>
<path d="M174.9 13.8C175.4 13.8 175.8 13.4 175.8 12.9C175.8 12.4 175.4 12 174.9 12C174.4 12 174 12.4 174 12.9C174 13.4 174.4 13.8 174.9 13.8Z" fill="white"/>
<path d="M180.9 13.8C181.4 13.8 181.8 13.4 181.8 12.9C181.8 12.4 181.4 12 180.9 12C180.4 12 180 12.4 180 12.9C180 13.4 180.4 13.8 180.9 13.8Z" fill="white"/>
<path d="M186.9 13.8C187.4 13.8 187.8 13.4 187.8 12.9C187.8 12.4 187.4 12 186.9 12C186.4 12 186 12.4 186 12.9C186 13.4 186.4 13.8 186.9 13.8Z" fill="white"/>
<path d="M192.9 13.8C193.4 13.8 193.8 13.4 193.8 12.9C193.8 12.4 193.4 12 192.9 12C192.4 12 192 12.4 192 12.9C192 13.4 192.4 13.8 192.9 13.8Z" fill="white"/>
<path d="M198.9 13.8C199.4 13.8 199.8 13.4 199.8 12.9C199.8 12.4 199.4 12 198.9 12C198.4 12 198 12.4 198 12.9C198 13.4 198.4 13.8 198.9 13.8Z" fill="white"/>
<path d="M204.9 13.8C205.4 13.8 205.8 13.4 205.8 12.9C205.8 12.4 205.4 12 204.9 12C204.4 12 204 12.4 204 12.9C204 13.4 204.4 13.8 204.9 13.8Z" fill="white"/>
<path d="M210.9 13.8C211.4 13.8 211.8 13.4 211.8 12.9C211.8 12.4 211.4 12 210.9 12C210.4 12 210 12.4 210 12.9C210 13.4 210.4 13.8 210.9 13.8Z" fill="white"/>
<path d="M216.9 13.8C217.4 13.8 217.8 13.4 217.8 12.9C217.8 12.4 217.4 12 216.9 12C216.4 12 216 12.4 216 12.9C216 13.4 216.4 13.8 216.9 13.8Z" fill="white"/>
<path d="M222.9 13.8C223.4 13.8 223.8 13.4 223.8 12.9C223.8 12.4 223.4 12 222.9 12C222.4 12 222 12.4 222 12.9C222 13.4 222.4 13.8 222.9 13.8Z" fill="white"/>
<path d="M228.9 13.8C229.4 13.8 229.8 13.4 229.8 12.9C229.8 12.4 229.4 12 228.9 12C228.4 12 228 12.4 228 12.9C228 13.4 228.4 13.8 228.9 13.8Z" fill="white"/>
<path d="M234.9 13.8C235.4 13.8 235.8 13.4 235.8 12.9C235.8 12.4 235.4 12 234.9 12C234.4 12 234 12.4 234 12.9C234 13.4 234.4 13.8 234.9 13.8Z" fill="white"/>
<path d="M240.9 13.8C241.4 13.8 241.8 13.4 241.8 12.9C241.8 12.4 241.4 12 240.9 12C240.4 12 240 12.4 240 12.9C240 13.4 240.4 13.8 240.9 13.8Z" fill="white"/>
<path d="M246.9 13.8C247.4 13.8 247.8 13.4 247.8 12.9C247.8 12.4 247.4 12 246.9 12C246.4 12 246 12.4 246 12.9C246 13.4 246.4 13.8 246.9 13.8Z" fill="white"/>
<path d="M252.9 13.8C253.4 13.8 253.8 13.4 253.8 12.9C253.8 12.4 253.4 12 252.9 12C252.4 12 252 12.4 252 12.9C252 13.4 252.4 13.8 252.9 13.8Z" fill="white"/>
<path d="M0.9 19.8C1.4 19.8 1.8 19.4 1.8 18.9C1.8 18.4 1.4 18 0.9 18C0.4 18 0 18.4 0 18.9C0 19.4 0.4 19.8 0.9 19.8Z" fill="white"/>
<path d="M6.9 19.8C7.4 19.8 7.8 19.4 7.8 18.9C7.8 18.4 7.4 18 6.9 18C6.4 18 6 18.4 6 18.9C6 19.4 6.4 19.8 6.9 19.8Z" fill="white"/>
<path d="M12.9 19.8C13.4 19.8 13.8 19.4 13.8 18.9C13.8 18.4 13.4 18 12.9 18C12.4 18 12 18.4 12 18.9C12 19.4 12.4 19.8 12.9 19.8Z" fill="white"/>
<path d="M18.9 19.8C19.4 19.8 19.8 19.4 19.8 18.9C19.8 18.4 19.4 18 18.9 18C18.4 18 18 18.4 18 18.9C18 19.4 18.4 19.8 18.9 19.8Z" fill="white"/>
<path d="M24.9 19.8C25.4 19.8 25.8 19.4 25.8 18.9C25.8 18.4 25.4 18 24.9 18C24.4 18 24 18.4 24 18.9C24 19.4 24.4 19.8 24.9 19.8Z" fill="white"/>
<path d="M30.9 19.8C31.4 19.8 31.8 19.4 31.8 18.9C31.8 18.4 31.4 18 30.9 18C30.4 18 30 18.4 30 18.9C30 19.4 30.4 19.8 30.9 19.8Z" fill="white"/>
<path d="M36.9 19.8C37.4 19.8 37.8 19.4 37.8 18.9C37.8 18.4 37.4 18 36.9 18C36.4 18 36 18.4 36 18.9C36 19.4 36.4 19.8 36.9 19.8Z" fill="white"/>
<path d="M42.9 19.8C43.4 19.8 43.8 19.4 43.8 18.9C43.8 18.4 43.4 18 42.9 18C42.4 18 42 18.4 42 18.9C42 19.4 42.4 19.8 42.9 19.8Z" fill="white"/>
<path d="M48.9 19.8C49.4 19.8 49.8 19.4 49.8 18.9C49.8 18.4 49.4 18 48.9 18C48.4 18 48 18.4 48 18.9C48 19.4 48.4 19.8 48.9 19.8Z" fill="white"/>
<path d="M54.9 19.8C55.4 19.8 55.8 19.4 55.8 18.9C55.8 18.4 55.4 18 54.9 18C54.4 18 54 18.4 54 18.9C54 19.4 54.4 19.8 54.9 19.8Z" fill="white"/>
<path d="M60.9 19.8C61.4 19.8 61.8 19.4 61.8 18.9C61.8 18.4 61.4 18 60.9 18C60.4 18 60 18.4 60 18.9C60 19.4 60.4 19.8 60.9 19.8Z" fill="white"/>
<path d="M66.9 19.8C67.4 19.8 67.8 19.4 67.8 18.9C67.8 18.4 67.4 18 66.9 18C66.4 18 66 18.4 66 18.9C66 19.4 66.4 19.8 66.9 19.8Z" fill="white"/>
<path d="M72.9 19.8C73.4 19.8 73.8 19.4 73.8 18.9C73.8 18.4 73.4 18 72.9 18C72.4 18 72 18.4 72 18.9C72 19.4 72.4 19.8 72.9 19.8Z" fill="white"/>
<path d="M78.9 19.8C79.4 19.8 79.8 19.4 79.8 18.9C79.8 18.4 79.4 18 78.9 18C78.4 18 78 18.4 78 18.9C78 19.4 78.4 19.8 78.9 19.8Z" fill="white"/>
<path d="M84.9 19.8C85.4 19.8 85.8 19.4 85.8 18.9C85.8 18.4 85.4 18 84.9 18C84.4 18 84 18.4 84 18.9C84 19.4 84.4 19.8 84.9 19.8Z" fill="white"/>
<path d="M90.9 19.8C91.4 19.8 91.8 19.4 91.8 18.9C91.8 18.4 91.4 18 90.9 18C90.4 18 90 18.4 90 18.9C90 19.4 90.4 19.8 90.9 19.8Z" fill="white"/>
<path d="M96.9 19.8C97.4 19.8 97.8 19.4 97.8 18.9C97.8 18.4 97.4 18 96.9 18C96.4 18 96 18.4 96 18.9C96 19.4 96.4 19.8 96.9 19.8Z" fill="white"/>
<path d="M102.9 19.8C103.4 19.8 103.8 19.4 103.8 18.9C103.8 18.4 103.4 18 102.9 18C102.4 18 102 18.4 102 18.9C102 19.4 102.4 19.8 102.9 19.8Z" fill="white"/>
<path d="M108.9 19.8C109.4 19.8 109.8 19.4 109.8 18.9C109.8 18.4 109.4 18 108.9 18C108.4 18 108 18.4 108 18.9C108 19.4 108.4 19.8 108.9 19.8Z" fill="white"/>
<path d="M114.9 19.8C115.4 19.8 115.8 19.4 115.8 18.9C115.8 18.4 115.4 18 114.9 18C114.4 18 114 18.4 114 18.9C114 19.4 114.4 19.8 114.9 19.8Z" fill="white"/>
<path d="M120.9 19.8C121.4 19.8 121.8 19.4 121.8 18.9C121.8 18.4 121.4 18 120.9 18C120.4 18 120 18.4 120 18.9C120 19.4 120.4 19.8 120.9 19.8Z" fill="white"/>
<path d="M126.9 19.8C127.4 19.8 127.8 19.4 127.8 18.9C127.8 18.4 127.4 18 126.9 18C126.4 18 126 18.4 126 18.9C126 19.4 126.4 19.8 126.9 19.8Z" fill="white"/>
<path d="M132.9 19.8C133.4 19.8 133.8 19.4 133.8 18.9C133.8 18.4 133.4 18 132.9 18C132.4 18 132 18.4 132 18.9C132 19.4 132.4 19.8 132.9 19.8Z" fill="white"/>
<path d="M138.9 19.8C139.4 19.8 139.8 19.4 139.8 18.9C139.8 18.4 139.4 18 138.9 18C138.4 18 138 18.4 138 18.9C138 19.4 138.4 19.8 138.9 19.8Z" fill="white"/>
<path d="M144.9 19.8C145.4 19.8 145.8 19.4 145.8 18.9C145.8 18.4 145.4 18 144.9 18C144.4 18 144 18.4 144 18.9C144 19.4 144.4 19.8 144.9 19.8Z" fill="white"/>
<path d="M150.9 19.8C151.4 19.8 151.8 19.4 151.8 18.9C151.8 18.4 151.4 18 150.9 18C150.4 18 150 18.4 150 18.9C150 19.4 150.4 19.8 150.9 19.8Z" fill="white"/>
<path d="M156.9 19.8C157.4 19.8 157.8 19.4 157.8 18.9C157.8 18.4 157.4 18 156.9 18C156.4 18 156 18.4 156 18.9C156 19.4 156.4 19.8 156.9 19.8Z" fill="white"/>
<path d="M162.9 19.8C163.4 19.8 163.8 19.4 163.8 18.9C163.8 18.4 163.4 18 162.9 18C162.4 18 162 18.4 162 18.9C162 19.4 162.4 19.8 162.9 19.8Z" fill="white"/>
<path d="M168.9 19.8C169.4 19.8 169.8 19.4 169.8 18.9C169.8 18.4 169.4 18 168.9 18C168.4 18 168 18.4 168 18.9C168 19.4 168.4 19.8 168.9 19.8Z" fill="white"/>
<path d="M174.9 19.8C175.4 19.8 175.8 19.4 175.8 18.9C175.8 18.4 175.4 18 174.9 18C174.4 18 174 18.4 174 18.9C174 19.4 174.4 19.8 174.9 19.8Z" fill="white"/>
<path d="M180.9 19.8C181.4 19.8 181.8 19.4 181.8 18.9C181.8 18.4 181.4 18 180.9 18C180.4 18 180 18.4 180 18.9C180 19.4 180.4 19.8 180.9 19.8Z" fill="white"/>
<path d="M186.9 19.8C187.4 19.8 187.8 19.4 187.8 18.9C187.8 18.4 187.4 18 186.9 18C186.4 18 186 18.4 186 18.9C186 19.4 186.4 19.8 186.9 19.8Z" fill="white"/>
<path d="M192.9 19.8C193.4 19.8 193.8 19.4 193.8 18.9C193.8 18.4 193.4 18 192.9 18C192.4 18 192 18.4 192 18.9C192 19.4 192.4 19.8 192.9 19.8Z" fill="white"/>
<path d="M198.9 19.8C199.4 19.8 199.8 19.4 199.8 18.9C199.8 18.4 199.4 18 198.9 18C198.4 18 198 18.4 198 18.9C198 19.4 198.4 19.8 198.9 19.8Z" fill="white"/>
<path d="M204.9 19.8C205.4 19.8 205.8 19.4 205.8 18.9C205.8 18.4 205.4 18 204.9 18C204.4 18 204 18.4 204 18.9C204 19.4 204.4 19.8 204.9 19.8Z" fill="white"/>
<path d="M210.9 19.8C211.4 19.8 211.8 19.4 211.8 18.9C211.8 18.4 211.4 18 210.9 18C210.4 18 210 18.4 210 18.9C210 19.4 210.4 19.8 210.9 19.8Z" fill="white"/>
<path d="M216.9 19.8C217.4 19.8 217.8 19.4 217.8 18.9C217.8 18.4 217.4 18 216.9 18C216.4 18 216 18.4 216 18.9C216 19.4 216.4 19.8 216.9 19.8Z" fill="white"/>
<path d="M222.9 19.8C223.4 19.8 223.8 19.4 223.8 18.9C223.8 18.4 223.4 18 222.9 18C222.4 18 222 18.4 222 18.9C222 19.4 222.4 19.8 222.9 19.8Z" fill="white"/>
<path d="M228.9 19.8C229.4 19.8 229.8 19.4 229.8 18.9C229.8 18.4 229.4 18 228.9 18C228.4 18 228 18.4 228 18.9C228 19.4 228.4 19.8 228.9 19.8Z" fill="white"/>
<path d="M234.9 19.8C235.4 19.8 235.8 19.4 235.8 18.9C235.8 18.4 235.4 18 234.9 18C234.4 18 234 18.4 234 18.9C234 19.4 234.4 19.8 234.9 19.8Z" fill="white"/>
<path d="M240.9 19.8C241.4 19.8 241.8 19.4 241.8 18.9C241.8 18.4 241.4 18 240.9 18C240.4 18 240 18.4 240 18.9C240 19.4 240.4 19.8 240.9 19.8Z" fill="white"/>
<path d="M246.9 19.8C247.4 19.8 247.8 19.4 247.8 18.9C247.8 18.4 247.4 18 246.9 18C246.4 18 246 18.4 246 18.9C246 19.4 246.4 19.8 246.9 19.8Z" fill="white"/>
<path d="M252.9 19.8C253.4 19.8 253.8 19.4 253.8 18.9C253.8 18.4 253.4 18 252.9 18C252.4 18 252 18.4 252 18.9C252 19.4 252.4 19.8 252.9 19.8Z" fill="white"/>
</svg>
