<svg width="450" height="451" viewBox="0 0 500 501" fill="none" xmlns="http://www.w3.org/2000/svg">
<g style="mix-blend-mode:soft-light">
<path d="M250.5 501.6C183.565 501.6 120.433 475.485 73.2738 428.326C25.8613 380.914 0 318.035 0 251.1C0 184.165 26.1149 121.033 73.2738 73.8738C120.686 26.4614 183.565 0.600006 250.5 0.600006C317.435 0.600006 380.567 26.7149 427.726 73.8738C475.139 121.286 501 184.165 501 251.1C501 318.035 474.885 381.167 427.726 428.326C380.567 475.485 317.689 501.6 250.5 501.6ZM250.5 1.36064C112.826 1.36064 1.01415 113.173 1.01415 250.846C1.01415 388.52 112.826 500.332 250.5 500.332C388.174 500.332 499.986 388.52 499.986 250.846C499.986 113.173 388.174 1.36064 250.5 1.36064Z" fill="#1D2135"/>
<path d="M250.5 470.414C129.56 470.414 30.9322 372.04 30.9322 250.846C30.9322 129.907 129.307 31.2787 250.5 31.2787C371.44 31.2787 470.068 129.653 470.068 250.846C470.068 371.786 371.693 470.414 250.5 470.414ZM250.5 32.5464C130.067 32.5464 32.1999 130.414 32.1999 250.846C32.1999 371.279 130.067 469.147 250.5 469.147C370.933 469.147 468.8 371.279 468.8 250.846C468.8 130.414 370.933 32.5464 250.5 32.5464Z" fill="#1D2135"/>
<path d="M250.5 438.975C146.801 438.975 62.3715 354.545 62.3715 250.846C62.3715 147.148 146.801 62.7179 250.5 62.7179C354.199 62.7179 438.629 147.148 438.629 250.846C438.882 354.545 354.452 438.975 250.5 438.975ZM250.5 63.9856C147.308 63.9856 63.6392 147.908 63.6392 250.846C63.6392 354.038 147.562 437.707 250.5 437.707C353.692 437.707 437.361 353.785 437.361 250.846C437.614 147.655 353.692 63.9856 250.5 63.9856Z" fill="#1D2135"/>
<path d="M250.5 407.789C164.042 407.789 93.5572 337.304 93.5572 250.846C93.5572 164.388 164.042 93.9037 250.5 93.9037C336.958 93.9037 407.443 164.388 407.443 250.846C407.443 337.304 337.212 407.789 250.5 407.789ZM250.5 95.1714C164.549 95.1714 94.8249 164.896 94.8249 250.846C94.8249 336.797 164.549 406.522 250.5 406.522C336.451 406.522 406.175 336.797 406.175 250.846C406.175 164.896 336.451 95.1714 250.5 95.1714Z" fill="#1D2135"/>
<path d="M250.5 376.604C181.283 376.604 124.743 320.317 124.743 250.846C124.743 181.629 181.029 125.089 250.5 125.089C319.717 125.089 376.257 181.376 376.257 250.846C376.257 320.064 319.971 376.604 250.5 376.604ZM250.5 126.357C181.79 126.357 126.011 182.136 126.011 250.846C126.011 319.557 181.79 375.336 250.5 375.336C319.21 375.336 374.989 319.557 374.989 250.846C374.989 182.136 319.21 126.357 250.5 126.357Z" fill="#1D2135"/>
</g>
</svg>
