<svg width="230" height="501" viewBox="0 0 230 501" fill="none" xmlns="http://www.w3.org/2000/svg">
<g style="mix-blend-mode:soft-light">
<path d="M250.5 501C183.565 501 120.433 474.885 73.2738 427.726C25.8613 380.314 0 317.435 0 250.5C0 183.565 26.1149 120.433 73.2738 73.2738C120.686 25.8614 183.565 0 250.5 0C317.435 0 380.567 26.1149 427.726 73.2738C475.139 120.686 501 183.565 501 250.5C501 317.435 474.885 380.567 427.726 427.726C380.567 474.885 317.689 501 250.5 501ZM250.5 0.760635C112.826 0.760635 1.01415 112.573 1.01415 250.246C1.01415 387.92 112.826 499.732 250.5 499.732C388.174 499.732 499.986 387.92 499.986 250.246C499.986 112.573 388.174 0.760635 250.5 0.760635Z" fill="#1D2135"/>
<path d="M250.5 469.814C129.56 469.814 30.9321 371.44 30.9321 250.246C30.9321 129.307 129.307 30.6787 250.5 30.6787C371.44 30.6787 470.068 129.053 470.068 250.246C470.068 371.186 371.693 469.814 250.5 469.814ZM250.5 31.9464C130.067 31.9464 32.1998 129.814 32.1998 250.246C32.1998 370.679 130.067 468.547 250.5 468.547C370.933 468.547 468.8 370.679 468.8 250.246C468.8 129.814 370.933 31.9464 250.5 31.9464Z" fill="#1D2135"/>
<path d="M250.5 438.375C146.801 438.375 62.3716 353.945 62.3716 250.246C62.3716 146.548 146.801 62.1179 250.5 62.1179C354.199 62.1179 438.629 146.548 438.629 250.246C438.882 353.945 354.453 438.375 250.5 438.375ZM250.5 63.3856C147.308 63.3856 63.6393 147.308 63.6393 250.246C63.6393 353.438 147.562 437.107 250.5 437.107C353.692 437.107 437.361 353.185 437.361 250.246C437.615 147.055 353.692 63.3856 250.5 63.3856Z" fill="#1D2135"/>
<path d="M250.5 407.189C164.042 407.189 93.5571 336.704 93.5571 250.246C93.5571 163.788 164.042 93.3036 250.5 93.3036C336.958 93.3036 407.443 163.788 407.443 250.246C407.443 336.704 337.212 407.189 250.5 407.189ZM250.5 94.5714C164.549 94.5714 94.8248 164.296 94.8248 250.246C94.8248 336.197 164.549 405.922 250.5 405.922C336.451 405.922 406.175 336.197 406.175 250.246C406.175 164.296 336.451 94.5714 250.5 94.5714Z" fill="#1D2135"/>
<path d="M250.5 376.004C181.283 376.004 124.743 319.717 124.743 250.246C124.743 181.029 181.029 124.489 250.5 124.489C319.717 124.489 376.257 180.776 376.257 250.246C376.257 319.464 319.971 376.004 250.5 376.004ZM250.5 125.757C181.79 125.757 126.011 181.536 126.011 250.246C126.011 318.956 181.79 374.736 250.5 374.736C319.21 374.736 374.989 318.956 374.989 250.246C374.989 181.536 319.21 125.757 250.5 125.757Z" fill="#1D2135"/>
</g>
</svg>
