<svg width="1434" height="800" viewBox="0 0 1434 800" fill="none" xmlns="http://www.w3.org/2000/svg"><path fill-rule="evenodd" clip-rule="evenodd" d="M340.71 575.186c52.851-97.462 158.553-175.033 268.233-159.69 42.323 5.923 81.122 24.622 119.942 43.332 37.543 18.094 75.107 36.199 115.899 42.764 92.347 15.06 183.846-31.824 258.286-88.085 22.16-16.764 43.64-34.551 65.1-52.327l.01-.002c50.93-42.18 101.79-84.289 161.36-112.475 16.7-7.968 33.93-14.715 51.13-21.451 20.83-8.157 41.62-16.298 61.39-26.57 36.08-19.037 70.18-46.884 84.11-85.243 14.2-38.36 2.55-87.801-33.53-107.123-32.96-17.617-75.3-5.115-104.85 17.617-19.44 14.812-35.39 33.364-51.37 51.96v.004c-8.54 9.943-17.1 19.898-26.21 29.302-37.82 39.104-84.22 67.75-133.16 92.209V223h-50.22c-10.85 4.855-21.73 9.613-32.57 14.337-50.01 21.879-104.846 44.327-157.697 30.688-30.082-7.735-55.277-26.078-80.428-45.025H438.802c.761 6.409 2.157 12.818 3.553 19.228.944 4.337 1.889 8.673 2.636 13.01 12.787 73.026-32.676 145.199-89.79 192.651-31.552 26.215-66.747 47.401-101.943 68.587h-.001c-28.512 17.163-57.025 34.326-83.603 54.164C92.367 628.606 32.696 709.303.019 799.945L0 800h277.288c1.497-9.135 2.699-18.356 3.897-27.542 1.683-12.901 3.356-25.731 5.821-38.15 9.377-49.157 23.3-97.746 45.464-142.641a444.002 444.002 0 0 1 8.24-16.481z" fill="#181B2C"/></svg>