<svg width="588" height="887" viewBox="0 0 588 887" fill="none" xmlns="http://www.w3.org/2000/svg"><path d="M408.346 1.59c-26.994 3.694-54.272 17.617-67.343 41.485-15.059 27.278-9.376 60.807-6.251 92.063 11.65 118.205-23.584 240.387-96.893 334.155-64.501 81.834-155.712 142.073-208.563 232.431-26.71 45.748-41.77 104.566-15.912 150.597 12.218 21.88 37.507 39.497 61.375 32.677 14.492-3.978 25.573-16.196 34.382-28.13 42.622-57.966 59.386-131.275 98.882-191.514 85.812-130.707 264.824-179.296 342.964-314.549 30.972-53.704 42.906-117.921 33.529-179.296-5.967-38.928-20.743-76.151-42.338-109.112-9.945-15.344-21.595-30.12-34.665-42.906-8.525-8.24-17.617-12.502-28.983-14.776C455.514.737 431.362-1.82 408.346 1.59z" fill="#181B2C"/></svg>