<svg width="794" height="482" viewBox="0 0 794 482" fill="none" xmlns="http://www.w3.org/2000/svg"><path d="M181.28 295.666c27.168-50.098 81.502-89.973 137.882-82.086 42.796 5.989 78.581 37.392 121.23 44.257 47.47 7.741 94.502-16.359 132.77-45.279 38.414-29.066 72.884-64.121 116.411-84.716 18.988-9.055 39.29-15.044 57.84-24.684 18.55-9.786 36.077-24.1 43.234-43.818 7.303-19.719 1.314-45.133-17.235-55.065-16.943-9.056-38.706-2.63-53.897 9.056-15.336 11.684-26.437 27.897-39.874 41.773C649.406 86.36 608.509 104.619 568.634 122c-25.707 11.247-53.896 22.785-81.064 15.775-25.56-6.573-44.256-28.044-67.334-41.19-28.044-15.92-63.098-18.55-93.187-7.01-21.471 8.179-46.447 23.077-65.143 9.64-4.236-3.068-7.887-7.596-13-8.618-8.471-1.753-15.92 6.719-17.235 15.19-1.168 8.472 1.753 16.943 3.214 25.415 6.572 37.537-16.797 74.637-46.156 99.029-29.358 24.392-64.851 40.313-95.378 63.098-39.728 29.797-70.401 71.278-87.198 117.872-6.28 17.673-10.224 38.852.73 54.042 11.977 16.651 35.347 17.966 53.75 14.46 10.517-2.044 20.887-5.404 31.258-8.471 7.595-2.337 15.19-4.674 22.493-7.887 11.977-5.259 21.471-13.292 26.875-25.415 8.472-18.696 8.472-40.605 12.416-60.469 4.82-25.269 11.977-50.245 23.369-73.323a231.41 231.41 0 0 1 4.236-8.472z" fill="#181B2C"/></svg>