<svg width="715" height="180" viewBox="0 0 715 180" fill="none" xmlns="http://www.w3.org/2000/svg"><path fill-rule="evenodd" clip-rule="evenodd" d="M226.945 10.272c-.746-3.424-1.492-6.848-1.869-10.272h213.613c13.084 9.864 26.155 19.483 41.804 23.507 27.114 6.997 55.249-4.519 80.906-15.744 5.864-2.556 11.749-5.13 17.619-7.763h135.903c-2.19.869-4.385 1.729-6.581 2.589h-.002c-8.825 3.456-17.664 6.917-26.235 11.005-30.562 14.46-56.651 36.064-82.784 57.704-11.013 9.12-22.034 18.246-33.401 26.847-38.193 28.864-85.134 52.917-132.512 45.191-20.927-3.368-40.199-12.657-59.46-21.94-19.916-9.599-39.821-19.192-61.535-22.23-56.27-7.872-110.499 31.925-137.614 81.927a227.32 227.32 0 0 0-4.227 8.455c-11.371 23.033-18.514 47.96-23.325 73.18-1.265 6.371-2.123 12.954-2.986 19.573-.615 4.712-1.232 9.443-2 14.13H0a.875.875 0 0 1 .01-.028C16.774 249.9 47.388 208.499 87.04 178.76c13.635-10.178 28.263-18.983 42.891-27.788 18.057-10.869 36.113-21.738 52.301-35.188 29.301-24.345 52.626-61.372 46.066-98.837-.384-2.225-.869-4.45-1.353-6.675z" fill="#181B2C"/></svg>