<svg width="224" height="288" viewBox="0 0 224 288" fill="none" xmlns="http://www.w3.org/2000/svg"><path fill-rule="evenodd" clip-rule="evenodd" d="M98.137 21.935C104.793 9.781 118.684 2.691 132.43.81c11.72-1.737 24.019-.435 35.739 1.59 5.788 1.158 10.418 3.328 14.759 7.524 6.656 6.512 12.588 14.036 17.653 21.85 10.996 16.784 18.521 35.739 21.559 55.562 4.775 31.254-1.302 63.955-17.074 91.302-20.542 35.558-54.776 59.353-89.102 83.212-11.871 8.252-23.753 16.511-35.084 25.267H0l.212-.205c15.897-15.34 31.813-30.697 45.4-47.936 37.332-47.749 55.274-109.968 49.342-170.161a702.4 702.4 0 0 0-.522-4.966c-1.555-14.445-3.172-29.46 3.705-41.915z" fill="#181B2C"/></svg>