<svg width="1544" height="937" viewBox="0 0 1544 937" fill="none" xmlns="http://www.w3.org/2000/svg"><path d="M352.66 575.186c52.852-97.462 158.554-175.033 268.234-159.69 83.254 11.65 152.87 72.742 235.841 86.096 92.347 15.06 183.845-31.824 258.285-88.085 74.73-56.545 141.79-124.739 226.47-164.804 36.94-17.617 76.43-29.267 112.52-48.021 36.08-19.037 70.18-46.884 84.11-85.243 14.2-38.36 2.55-87.801-33.53-107.123-32.96-17.617-75.3-5.115-104.85 17.617-29.84 22.732-51.43 54.272-77.57 81.266-58.82 60.807-138.38 96.325-215.96 130.138-50.01 21.879-104.85 44.327-157.696 30.688-49.726-12.787-86.097-54.556-130.991-80.129-54.556-30.972-122.751-36.087-181.285-13.639-41.77 15.912-90.359 44.895-126.729 18.753-8.24-5.967-15.344-14.775-25.289-16.764-16.481-3.41-30.972 13.071-33.529 29.551-2.273 16.48 3.409 32.961 6.251 49.441 12.786 73.026-32.677 145.199-89.79 192.651-57.113 47.452-126.161 78.424-185.547 122.751C104.317 628.606 44.647 709.303 11.97 799.945c-12.218 34.382-19.89 75.583 1.42 105.134 23.3 32.393 68.764 34.95 104.566 28.131 20.459-3.978 40.633-10.514 60.807-16.481 14.776-4.546 29.552-9.093 43.759-15.344 23.3-10.229 41.769-25.857 52.283-49.441 16.48-36.371 16.48-78.993 24.152-117.636 9.377-49.157 23.3-97.746 45.463-142.641a447.14 447.14 0 0 1 8.24-16.481z" fill="#181B2C"/></svg>