<svg width="236" height="38" viewBox="0 0 236 38" fill="none" xmlns="http://www.w3.org/2000/svg"><path d="M.9 1.8A.9.9 0 1 0 .9 0a.9.9 0 0 0 0 1.8zm6 0a.9.9 0 1 0 0-1.8.9.9 0 0 0 0 1.8zm6 0a.9.9 0 1 0 0-1.8.9.9 0 0 0 0 1.8zm6 0a.9.9 0 1 0 0-1.8.9.9 0 0 0 0 1.8zm6 0a.9.9 0 1 0 0-1.8.9.9 0 0 0 0 1.8zm6 0a.9.9 0 1 0 0-1.8.9.9 0 0 0 0 1.8zm6 0a.9.9 0 1 0 0-1.8.9.9 0 0 0 0 1.8zm6 0a.9.9 0 1 0 0-1.8.9.9 0 0 0 0 1.8zm6 0a.9.9 0 1 0 0-1.8.9.9 0 0 0 0 1.8zm6 0a.9.9 0 1 0 0-1.8.9.9 0 0 0 0 1.8zm6 0a.9.9 0 1 0 0-1.8.9.9 0 0 0 0 1.8zm6 0a.9.9 0 1 0 0-1.8.9.9 0 0 0 0 1.8zm6 0a.9.9 0 1 0 0-1.8.9.9 0 0 0 0 1.8zm6 0a.9.9 0 1 0 0-1.8.9.9 0 0 0 0 1.8zm6 0a.9.9 0 1 0 0-1.8.9.9 0 0 0 0 1.8zm6 0a.9.9 0 1 0 0-1.8.9.9 0 0 0 0 1.8zm6 0a.9.9 0 1 0 0-1.8.9.9 0 0 0 0 1.8zm6 0a.9.9 0 1 0 0-1.8.9.9 0 0 0 0 1.8zm6 0a.9.9 0 1 0 0-1.8.9.9 0 0 0 0 1.8zm6 0a.9.9 0 1 0 0-1.8.9.9 0 0 0 0 1.8zm6 0a.9.9 0 1 0 0-1.8.9.9 0 0 0 0 1.8zm6 0a.9.9 0 1 0 0-1.8.9.9 0 0 0 0 1.8zm6 0a.9.9 0 1 0 0-1.8.9.9 0 0 0 0 1.8zm6 0a.9.9 0 1 0 0-1.8.9.9 0 0 0 0 1.8zm6 0a.9.9 0 1 0 0-1.8.9.9 0 0 0 0 1.8zm6 0a.9.9 0 1 0 0-1.8.9.9 0 0 0 0 1.8zm6 0a.9.9 0 1 0 0-1.8.9.9 0 0 0 0 1.8zm6 0a.9.9 0 1 0 0-1.8.9.9 0 0 0 0 1.8zm6 0a.9.9 0 1 0 0-1.8.9.9 0 0 0 0 1.8zm6 0a.9.9 0 1 0 0-1.8.9.9 0 0 0 0 1.8zm6 0a.9.9 0 1 0 0-1.8.9.9 0 0 0 0 1.8zm6 0a.9.9 0 1 0 0-1.8.9.9 0 0 0 0 1.8zm6 0a.9.9 0 1 0 0-1.8.9.9 0 0 0 0 1.8zm6 0a.9.9 0 1 0 0-1.8.9.9 0 0 0 0 1.8zm6 0a.9.9 0 1 0 0-1.8.9.9 0 0 0 0 1.8zm6 0a.9.9 0 1 0 0-1.8.9.9 0 0 0 0 1.8zm6 0a.9.9 0 1 0 0-1.8.9.9 0 0 0 0 1.8zm6 0a.9.9 0 1 0 0-1.8.9.9 0 0 0 0 1.8zm6 0a.9.9 0 1 0 0-1.8.9.9 0 0 0 0 1.8zm6 0a.9.9 0 1 0 0-1.8.9.9 0 0 0 0 1.8zm-234 6A.9.9 0 1 0 .9 6a.9.9 0 0 0 0 1.8zm6 0a.9.9 0 1 0 0-1.8.9.9 0 0 0 0 1.8zm6 0a.9.9 0 1 0 0-1.8.9.9 0 0 0 0 1.8zm6 0a.9.9 0 1 0 0-1.8.9.9 0 0 0 0 1.8zm6 0a.9.9 0 1 0 0-1.8.9.9 0 0 0 0 1.8zm6 0a.9.9 0 1 0 0-1.8.9.9 0 0 0 0 1.8zm6 0a.9.9 0 1 0 0-1.8.9.9 0 0 0 0 1.8zm6 0a.9.9 0 1 0 0-1.8.9.9 0 0 0 0 1.8zm6 0a.9.9 0 1 0 0-1.8.9.9 0 0 0 0 1.8zm6 0a.9.9 0 1 0 0-1.8.9.9 0 0 0 0 1.8zm6 0a.9.9 0 1 0 0-1.8.9.9 0 0 0 0 1.8zm6 0a.9.9 0 1 0 0-1.8.9.9 0 0 0 0 1.8zm6 0a.9.9 0 1 0 0-1.8.9.9 0 0 0 0 1.8zm6 0a.9.9 0 1 0 0-1.8.9.9 0 0 0 0 1.8zm6 0a.9.9 0 1 0 0-1.8.9.9 0 0 0 0 1.8zm6 0a.9.9 0 1 0 0-1.8.9.9 0 0 0 0 1.8zm6 0a.9.9 0 1 0 0-1.8.9.9 0 0 0 0 1.8zm6 0a.9.9 0 1 0 0-1.8.9.9 0 0 0 0 1.8zm6 0a.9.9 0 1 0 0-1.8.9.9 0 0 0 0 1.8zm6 0a.9.9 0 1 0 0-1.8.9.9 0 0 0 0 1.8zm6 0a.9.9 0 1 0 0-1.8.9.9 0 0 0 0 1.8zm6 0a.9.9 0 1 0 0-1.8.9.9 0 0 0 0 1.8zm6 0a.9.9 0 1 0 0-1.8.9.9 0 0 0 0 1.8zm6 0a.9.9 0 1 0 0-1.8.9.9 0 0 0 0 1.8zm6 0a.9.9 0 1 0 0-1.8.9.9 0 0 0 0 1.8zm6 0a.9.9 0 1 0 0-1.8.9.9 0 0 0 0 1.8zm6 0a.9.9 0 1 0 0-1.8.9.9 0 0 0 0 1.8zm6 0a.9.9 0 1 0 0-1.8.9.9 0 0 0 0 1.8zm6 0a.9.9 0 1 0 0-1.8.9.9 0 0 0 0 1.8zm6 0a.9.9 0 1 0 0-1.8.9.9 0 0 0 0 1.8zm6 0a.9.9 0 1 0 0-1.8.9.9 0 0 0 0 1.8zm6 0a.9.9 0 1 0 0-1.8.9.9 0 0 0 0 1.8zm6 0a.9.9 0 1 0 0-1.8.9.9 0 0 0 0 1.8zm6 0a.9.9 0 1 0 0-1.8.9.9 0 0 0 0 1.8zm6 0a.9.9 0 1 0 0-1.8.9.9 0 0 0 0 1.8zm6 0a.9.9 0 1 0 0-1.8.9.9 0 0 0 0 1.8zm6 0a.9.9 0 1 0 0-1.8.9.9 0 0 0 0 1.8zm6 0a.9.9 0 1 0 0-1.8.9.9 0 0 0 0 1.8zm6 0a.9.9 0 1 0 0-1.8.9.9 0 0 0 0 1.8zm6 0a.9.9 0 1 0 0-1.8.9.9 0 0 0 0 1.8zm-234 6a.9.9 0 1 0 0-1.8.9.9 0 0 0 0 1.8zm6 0a.9.9 0 1 0 0-1.8.9.9 0 0 0 0 1.8zm6 0a.9.9 0 1 0 0-1.8.9.9 0 0 0 0 1.8zm6 0a.9.9 0 1 0 0-1.8.9.9 0 0 0 0 1.8zm6 0a.9.9 0 1 0 0-1.8.9.9 0 0 0 0 1.8zm6 0a.9.9 0 1 0 0-1.8.9.9 0 0 0 0 1.8zm6 0a.9.9 0 1 0 0-1.8.9.9 0 0 0 0 1.8zm6 0a.9.9 0 1 0 0-1.8.9.9 0 0 0 0 1.8zm6 0a.9.9 0 1 0 0-1.8.9.9 0 0 0 0 1.8zm6 0a.9.9 0 1 0 0-1.8.9.9 0 0 0 0 1.8zm6 0a.9.9 0 1 0 0-1.8.9.9 0 0 0 0 1.8zm6 0a.9.9 0 1 0 0-1.8.9.9 0 0 0 0 1.8zm6 0a.9.9 0 1 0 0-1.8.9.9 0 0 0 0 1.8zm6 0a.9.9 0 1 0 0-1.8.9.9 0 0 0 0 1.8zm6 0a.9.9 0 1 0 0-1.8.9.9 0 0 0 0 1.8zm6 0a.9.9 0 1 0 0-1.8.9.9 0 0 0 0 1.8zm6 0a.9.9 0 1 0 0-1.8.9.9 0 0 0 0 1.8zm6 0a.9.9 0 1 0 0-1.8.9.9 0 0 0 0 1.8zm6 0a.9.9 0 1 0 0-1.8.9.9 0 0 0 0 1.8zm6 0a.9.9 0 1 0 0-1.8.9.9 0 0 0 0 1.8zm6 0a.9.9 0 1 0 0-1.8.9.9 0 0 0 0 1.8zm6 0a.9.9 0 1 0 0-1.8.9.9 0 0 0 0 1.8zm6 0a.9.9 0 1 0 0-1.8.9.9 0 0 0 0 1.8zm6 0a.9.9 0 1 0 0-1.8.9.9 0 0 0 0 1.8zm6 0a.9.9 0 1 0 0-1.8.9.9 0 0 0 0 1.8zm6 0a.9.9 0 1 0 0-1.8.9.9 0 0 0 0 1.8zm6 0a.9.9 0 1 0 0-1.8.9.9 0 0 0 0 1.8zm6 0a.9.9 0 1 0 0-1.8.9.9 0 0 0 0 1.8zm6 0a.9.9 0 1 0 0-1.8.9.9 0 0 0 0 1.8zm6 0a.9.9 0 1 0 0-1.8.9.9 0 0 0 0 1.8zm6 0a.9.9 0 1 0 0-1.8.9.9 0 0 0 0 1.8zm6 0a.9.9 0 1 0 0-1.8.9.9 0 0 0 0 1.8zm6 0a.9.9 0 1 0 0-1.8.9.9 0 0 0 0 1.8zm6 0a.9.9 0 1 0 0-1.8.9.9 0 0 0 0 1.8zm6 0a.9.9 0 1 0 0-1.8.9.9 0 0 0 0 1.8zm6 0a.9.9 0 1 0 0-1.8.9.9 0 0 0 0 1.8zm6 0a.9.9 0 1 0 0-1.8.9.9 0 0 0 0 1.8zm6 0a.9.9 0 1 0 0-1.8.9.9 0 0 0 0 1.8zm6 0a.9.9 0 1 0 0-1.8.9.9 0 0 0 0 1.8zm6 0a.9.9 0 1 0 0-1.8.9.9 0 0 0 0 1.8zm-234 6a.9.9 0 1 0 0-1.8.9.9 0 0 0 0 1.8zm6 0a.9.9 0 1 0 0-1.8.9.9 0 0 0 0 1.8zm6 0a.9.9 0 1 0 0-1.8.9.9 0 0 0 0 1.8zm6 0a.9.9 0 1 0 0-1.8.9.9 0 0 0 0 1.8zm6 0a.9.9 0 1 0 0-1.8.9.9 0 0 0 0 1.8zm6 0a.9.9 0 1 0 0-1.8.9.9 0 0 0 0 1.8zm6 0a.9.9 0 1 0 0-1.8.9.9 0 0 0 0 1.8zm6 0a.9.9 0 1 0 0-1.8.9.9 0 0 0 0 1.8zm6 0a.9.9 0 1 0 0-1.8.9.9 0 0 0 0 1.8zm6 0a.9.9 0 1 0 0-1.8.9.9 0 0 0 0 1.8zm6 0a.9.9 0 1 0 0-1.8.9.9 0 0 0 0 1.8zm6 0a.9.9 0 1 0 0-1.8.9.9 0 0 0 0 1.8zm6 0a.9.9 0 1 0 0-1.8.9.9 0 0 0 0 1.8zm6 0a.9.9 0 1 0 0-1.8.9.9 0 0 0 0 1.8zm6 0a.9.9 0 1 0 0-1.8.9.9 0 0 0 0 1.8zm6 0a.9.9 0 1 0 0-1.8.9.9 0 0 0 0 1.8zm6 0a.9.9 0 1 0 0-1.8.9.9 0 0 0 0 1.8zm6 0a.9.9 0 1 0 0-1.8.9.9 0 0 0 0 1.8zm6 0a.9.9 0 1 0 0-1.8.9.9 0 0 0 0 1.8zm6 0a.9.9 0 1 0 0-1.8.9.9 0 0 0 0 1.8zm6 0a.9.9 0 1 0 0-1.8.9.9 0 0 0 0 1.8zm6 0a.9.9 0 1 0 0-1.8.9.9 0 0 0 0 1.8zm6 0a.9.9 0 1 0 0-1.8.9.9 0 0 0 0 1.8zm6 0a.9.9 0 1 0 0-1.8.9.9 0 0 0 0 1.8zm6 0a.9.9 0 1 0 0-1.8.9.9 0 0 0 0 1.8zm6 0a.9.9 0 1 0 0-1.8.9.9 0 0 0 0 1.8zm6 0a.9.9 0 1 0 0-1.8.9.9 0 0 0 0 1.8zm6 0a.9.9 0 1 0 0-1.8.9.9 0 0 0 0 1.8zm6 0a.9.9 0 1 0 0-1.8.9.9 0 0 0 0 1.8zm6 0a.9.9 0 1 0 0-1.8.9.9 0 0 0 0 1.8zm6 0a.9.9 0 1 0 0-1.8.9.9 0 0 0 0 1.8zm6 0a.9.9 0 1 0 0-1.8.9.9 0 0 0 0 1.8zm6 0a.9.9 0 1 0 0-1.8.9.9 0 0 0 0 1.8zm6 0a.9.9 0 1 0 0-1.8.9.9 0 0 0 0 1.8zm6 0a.9.9 0 1 0 0-1.8.9.9 0 0 0 0 1.8zm6 0a.9.9 0 1 0 0-1.8.9.9 0 0 0 0 1.8zm6 0a.9.9 0 1 0 0-1.8.9.9 0 0 0 0 1.8zm6 0a.9.9 0 1 0 0-1.8.9.9 0 0 0 0 1.8zm6 0a.9.9 0 1 0 0-1.8.9.9 0 0 0 0 1.8zm6 0a.9.9 0 1 0 0-1.8.9.9 0 0 0 0 1.8zm-234 6a.9.9 0 1 0 0-1.8.9.9 0 0 0 0 1.8zm6 0a.9.9 0 1 0 0-1.8.9.9 0 0 0 0 1.8zm6 0a.9.9 0 1 0 0-1.8.9.9 0 0 0 0 1.8zm6 0a.9.9 0 1 0 0-1.8.9.9 0 0 0 0 1.8zm6 0a.9.9 0 1 0 0-1.8.9.9 0 0 0 0 1.8zm6 0a.9.9 0 1 0 0-1.8.9.9 0 0 0 0 1.8zm6 0a.9.9 0 1 0 0-1.8.9.9 0 0 0 0 1.8zm6 0a.9.9 0 1 0 0-1.8.9.9 0 0 0 0 1.8zm6 0a.9.9 0 1 0 0-1.8.9.9 0 0 0 0 1.8zm6 0a.9.9 0 1 0 0-1.8.9.9 0 0 0 0 1.8zm6 0a.9.9 0 1 0 0-1.8.9.9 0 0 0 0 1.8zm6 0a.9.9 0 1 0 0-1.8.9.9 0 0 0 0 1.8zm6 0a.9.9 0 1 0 0-1.8.9.9 0 0 0 0 1.8zm6 0a.9.9 0 1 0 0-1.8.9.9 0 0 0 0 1.8zm6 0a.9.9 0 1 0 0-1.8.9.9 0 0 0 0 1.8zm6 0a.9.9 0 1 0 0-1.8.9.9 0 0 0 0 1.8zm6 0a.9.9 0 1 0 0-1.8.9.9 0 0 0 0 1.8zm6 0a.9.9 0 1 0 0-1.8.9.9 0 0 0 0 1.8zm6 0a.9.9 0 1 0 0-1.8.9.9 0 0 0 0 1.8zm6 0a.9.9 0 1 0 0-1.8.9.9 0 0 0 0 1.8zm6 0a.9.9 0 1 0 0-1.8.9.9 0 0 0 0 1.8zm6 0a.9.9 0 1 0 0-1.8.9.9 0 0 0 0 1.8zm6 0a.9.9 0 1 0 0-1.8.9.9 0 0 0 0 1.8zm6 0a.9.9 0 1 0 0-1.8.9.9 0 0 0 0 1.8zm6 0a.9.9 0 1 0 0-1.8.9.9 0 0 0 0 1.8zm6 0a.9.9 0 1 0 0-1.8.9.9 0 0 0 0 1.8zm6 0a.9.9 0 1 0 0-1.8.9.9 0 0 0 0 1.8zm6 0a.9.9 0 1 0 0-1.8.9.9 0 0 0 0 1.8zm6 0a.9.9 0 1 0 0-1.8.9.9 0 0 0 0 1.8zm6 0a.9.9 0 1 0 0-1.8.9.9 0 0 0 0 1.8zm6 0a.9.9 0 1 0 0-1.8.9.9 0 0 0 0 1.8zm6 0a.9.9 0 1 0 0-1.8.9.9 0 0 0 0 1.8zm6 0a.9.9 0 1 0 0-1.8.9.9 0 0 0 0 1.8zm6 0a.9.9 0 1 0 0-1.8.9.9 0 0 0 0 1.8zm6 0a.9.9 0 1 0 0-1.8.9.9 0 0 0 0 1.8zm6 0a.9.9 0 1 0 0-1.8.9.9 0 0 0 0 1.8zm6 0a.9.9 0 1 0 0-1.8.9.9 0 0 0 0 1.8zm6 0a.9.9 0 1 0 0-1.8.9.9 0 0 0 0 1.8zm6 0a.9.9 0 1 0 0-1.8.9.9 0 0 0 0 1.8zm6 0a.9.9 0 1 0 0-1.8.9.9 0 0 0 0 1.8zm-234 6a.9.9 0 1 0 0-1.8.9.9 0 0 0 0 1.8zm6 0a.9.9 0 1 0 0-1.8.9.9 0 0 0 0 1.8zm6 0a.9.9 0 1 0 0-1.8.9.9 0 0 0 0 1.8zm6 0a.9.9 0 1 0 0-1.8.9.9 0 0 0 0 1.8zm6 0a.9.9 0 1 0 0-1.8.9.9 0 0 0 0 1.8zm6 0a.9.9 0 1 0 0-1.8.9.9 0 0 0 0 1.8zm6 0a.9.9 0 1 0 0-1.8.9.9 0 0 0 0 1.8zm6 0a.9.9 0 1 0 0-1.8.9.9 0 0 0 0 1.8zm6 0a.9.9 0 1 0 0-1.8.9.9 0 0 0 0 1.8zm6 0a.9.9 0 1 0 0-1.8.9.9 0 0 0 0 1.8zm6 0a.9.9 0 1 0 0-1.8.9.9 0 0 0 0 1.8zm6 0a.9.9 0 1 0 0-1.8.9.9 0 0 0 0 1.8zm6 0a.9.9 0 1 0 0-1.8.9.9 0 0 0 0 1.8zm6 0a.9.9 0 1 0 0-1.8.9.9 0 0 0 0 1.8zm6 0a.9.9 0 1 0 0-1.8.9.9 0 0 0 0 1.8zm6 0a.9.9 0 1 0 0-1.8.9.9 0 0 0 0 1.8zm6 0a.9.9 0 1 0 0-1.8.9.9 0 0 0 0 1.8zm6 0a.9.9 0 1 0 0-1.8.9.9 0 0 0 0 1.8zm6 0a.9.9 0 1 0 0-1.8.9.9 0 0 0 0 1.8zm6 0a.9.9 0 1 0 0-1.8.9.9 0 0 0 0 1.8zm6 0a.9.9 0 1 0 0-1.8.9.9 0 0 0 0 1.8zm6 0a.9.9 0 1 0 0-1.8.9.9 0 0 0 0 1.8zm6 0a.9.9 0 1 0 0-1.8.9.9 0 0 0 0 1.8zm6 0a.9.9 0 1 0 0-1.8.9.9 0 0 0 0 1.8zm6 0a.9.9 0 1 0 0-1.8.9.9 0 0 0 0 1.8zm6 0a.9.9 0 1 0 0-1.8.9.9 0 0 0 0 1.8zm6 0a.9.9 0 1 0 0-1.8.9.9 0 0 0 0 1.8zm6 0a.9.9 0 1 0 0-1.8.9.9 0 0 0 0 1.8zm6 0a.9.9 0 1 0 0-1.8.9.9 0 0 0 0 1.8zm6 0a.9.9 0 1 0 0-1.8.9.9 0 0 0 0 1.8zm6 0a.9.9 0 1 0 0-1.8.9.9 0 0 0 0 1.8zm6 0a.9.9 0 1 0 0-1.8.9.9 0 0 0 0 1.8zm6 0a.9.9 0 1 0 0-1.8.9.9 0 0 0 0 1.8zm6 0a.9.9 0 1 0 0-1.8.9.9 0 0 0 0 1.8zm6 0a.9.9 0 1 0 0-1.8.9.9 0 0 0 0 1.8zm6 0a.9.9 0 1 0 0-1.8.9.9 0 0 0 0 1.8zm6 0a.9.9 0 1 0 0-1.8.9.9 0 0 0 0 1.8zm6 0a.9.9 0 1 0 0-1.8.9.9 0 0 0 0 1.8zm6 0a.9.9 0 1 0 0-1.8.9.9 0 0 0 0 1.8zm6 0a.9.9 0 1 0 0-1.8.9.9 0 0 0 0 1.8zm-234 6a.9.9 0 1 0 0-1.8.9.9 0 0 0 0 1.8zm6 0a.9.9 0 1 0 0-1.8.9.9 0 0 0 0 1.8zm6 0a.9.9 0 1 0 0-1.8.9.9 0 0 0 0 1.8zm6 0a.9.9 0 1 0 0-1.8.9.9 0 0 0 0 1.8zm6 0a.9.9 0 1 0 0-1.8.9.9 0 0 0 0 1.8zm6 0a.9.9 0 1 0 0-1.8.9.9 0 0 0 0 1.8zm6 0a.9.9 0 1 0 0-1.8.9.9 0 0 0 0 1.8zm6 0a.9.9 0 1 0 0-1.8.9.9 0 0 0 0 1.8zm6 0a.9.9 0 1 0 0-1.8.9.9 0 0 0 0 1.8zm6 0a.9.9 0 1 0 0-1.8.9.9 0 0 0 0 1.8zm6 0a.9.9 0 1 0 0-1.8.9.9 0 0 0 0 1.8zm6 0a.9.9 0 1 0 0-1.8.9.9 0 0 0 0 1.8zm6 0a.9.9 0 1 0 0-1.8.9.9 0 0 0 0 1.8zm6 0a.9.9 0 1 0 0-1.8.9.9 0 0 0 0 1.8zm6 0a.9.9 0 1 0 0-1.8.9.9 0 0 0 0 1.8zm6 0a.9.9 0 1 0 0-1.8.9.9 0 0 0 0 1.8zm6 0a.9.9 0 1 0 0-1.8.9.9 0 0 0 0 1.8zm6 0a.9.9 0 1 0 0-1.8.9.9 0 0 0 0 1.8zm6 0a.9.9 0 1 0 0-1.8.9.9 0 0 0 0 1.8zm6 0a.9.9 0 1 0 0-1.8.9.9 0 0 0 0 1.8zm6 0a.9.9 0 1 0 0-1.8.9.9 0 0 0 0 1.8zm6 0a.9.9 0 1 0 0-1.8.9.9 0 0 0 0 1.8zm6 0a.9.9 0 1 0 0-1.8.9.9 0 0 0 0 1.8zm6 0a.9.9 0 1 0 0-1.8.9.9 0 0 0 0 1.8zm6 0a.9.9 0 1 0 0-1.8.9.9 0 0 0 0 1.8zm6 0a.9.9 0 1 0 0-1.8.9.9 0 0 0 0 1.8zm6 0a.9.9 0 1 0 0-1.8.9.9 0 0 0 0 1.8zm6 0a.9.9 0 1 0 0-1.8.9.9 0 0 0 0 1.8zm6 0a.9.9 0 1 0 0-1.8.9.9 0 0 0 0 1.8zm6 0a.9.9 0 1 0 0-1.8.9.9 0 0 0 0 1.8zm6 0a.9.9 0 1 0 0-1.8.9.9 0 0 0 0 1.8zm6 0a.9.9 0 1 0 0-1.8.9.9 0 0 0 0 1.8zm6 0a.9.9 0 1 0 0-1.8.9.9 0 0 0 0 1.8zm6 0a.9.9 0 1 0 0-1.8.9.9 0 0 0 0 1.8zm6 0a.9.9 0 1 0 0-1.8.9.9 0 0 0 0 1.8zm6 0a.9.9 0 1 0 0-1.8.9.9 0 0 0 0 1.8zm6 0a.9.9 0 1 0 0-1.8.9.9 0 0 0 0 1.8zm6 0a.9.9 0 1 0 0-1.8.9.9 0 0 0 0 1.8zm6 0a.9.9 0 1 0 0-1.8.9.9 0 0 0 0 1.8zm6 0a.9.9 0 1 0 0-1.8.9.9 0 0 0 0 1.8z" fill="#fff"/></svg>