<svg width="450" height="451" viewBox="0 0 500 501" fill="none" xmlns="http://www.w3.org/2000/svg"><g style="mix-blend-mode:soft-light" fill="#1D2135"><path d="M250.5 501.6c-66.935 0-130.067-26.115-177.226-73.274C25.86 380.914 0 318.035 0 251.1S26.115 121.033 73.274 73.874C120.686 26.46 183.565.6 250.5.6s130.067 26.115 177.226 73.274C475.139 121.286 501 184.165 501 251.1s-26.115 130.067-73.274 177.226C380.567 475.485 317.689 501.6 250.5 501.6zm0-500.24C112.826 1.36 1.014 113.174 1.014 250.847c0 137.674 111.812 249.486 249.486 249.486 137.674 0 249.486-111.812 249.486-249.486 0-137.673-111.812-249.485-249.486-249.485z"/><path d="M250.5 470.414c-120.94 0-219.568-98.374-219.568-219.568 0-120.939 98.375-219.567 219.568-219.567 120.94 0 219.568 98.374 219.568 219.567 0 120.94-98.375 219.568-219.568 219.568zm0-437.868c-120.433 0-218.3 97.868-218.3 218.3 0 120.433 97.867 218.301 218.3 218.301s218.3-97.868 218.3-218.301c0-120.432-97.867-218.3-218.3-218.3z"/><path d="M250.5 438.975c-103.699 0-188.129-84.43-188.129-188.129 0-103.698 84.43-188.128 188.129-188.128 103.699 0 188.129 84.43 188.129 188.128.253 103.699-84.177 188.129-188.129 188.129zm0-374.99c-103.192 0-186.86 83.923-186.86 186.861 0 103.192 83.922 186.861 186.86 186.861 103.192 0 186.861-83.922 186.861-186.861.253-103.191-83.669-186.86-186.861-186.86z"/><path d="M250.5 407.789c-86.458 0-156.943-70.485-156.943-156.943 0-86.458 70.485-156.942 156.943-156.942 86.458 0 156.943 70.484 156.943 156.942 0 86.458-70.231 156.943-156.943 156.943zm0-312.618c-85.951 0-155.675 69.725-155.675 155.675 0 85.951 69.724 155.676 155.675 155.676 85.951 0 155.675-69.725 155.675-155.676 0-85.95-69.724-155.675-155.675-155.675z"/><path d="M250.5 376.604c-69.217 0-125.757-56.287-125.757-125.758 0-69.217 56.286-125.757 125.757-125.757 69.217 0 125.757 56.287 125.757 125.757 0 69.218-56.286 125.758-125.757 125.758zm0-250.247c-68.71 0-124.489 55.779-124.489 124.489 0 68.711 55.779 124.49 124.489 124.49 68.71 0 124.489-55.779 124.489-124.49 0-68.71-55.779-124.489-124.489-124.489z"/></g></svg>